<?xml version="1.0" encoding="utf-8" standalone="no"?>
<!DOCTYPE svg PUBLIC "-//W3C//DTD SVG 1.1//EN"
  "http://www.w3.org/Graphics/SVG/1.1/DTD/svg11.dtd">
<!-- Created with matplotlib (https://matplotlib.org/) -->
<svg height="432pt" version="1.1" viewBox="0 0 1152 432" width="1152pt" xmlns="http://www.w3.org/2000/svg" xmlns:xlink="http://www.w3.org/1999/xlink">
 <defs>
  <style type="text/css">
*{stroke-linecap:butt;stroke-linejoin:round;}
  </style>
 </defs>
 <g id="figure_1">
  <g id="patch_1">
   <path d="M 0 432 
L 1152 432 
L 1152 0 
L 0 0 
z
"/>
  </g>
  <g id="axes_1">
   <g id="patch_2">
    <path d="M 144 378 
L 1036.8 378 
L 1036.8 51.84 
L 144 51.84 
z
" style="fill:#eaeaf2;"/>
   </g>
   <g id="matplotlib.axis_1">
    <g id="xtick_1">
     <g id="line2d_1">
      <path clip-path="url(#pc5f004d6b9)" d="M 184.581818 378 
L 184.581818 51.84 
" style="fill:none;stroke:#ffffff;stroke-linecap:round;stroke-width:1.5;"/>
     </g>
     <g id="text_1">
      <!-- 0 -->
      <defs>
       <path d="M 4.15625 35.296875 
Q 4.15625 48 6.765625 55.734375 
Q 9.375 63.484375 14.515625 67.671875 
Q 19.671875 71.875 27.484375 71.875 
Q 33.25 71.875 37.59375 69.546875 
Q 41.9375 67.234375 44.765625 62.859375 
Q 47.609375 58.5 49.21875 52.21875 
Q 50.828125 45.953125 50.828125 35.296875 
Q 50.828125 22.703125 48.234375 14.96875 
Q 45.65625 7.234375 40.5 3 
Q 35.359375 -1.21875 27.484375 -1.21875 
Q 17.140625 -1.21875 11.234375 6.203125 
Q 4.15625 15.140625 4.15625 35.296875 
z
M 13.1875 35.296875 
Q 13.1875 17.671875 17.3125 11.828125 
Q 21.4375 6 27.484375 6 
Q 33.546875 6 37.671875 11.859375 
Q 41.796875 17.71875 41.796875 35.296875 
Q 41.796875 52.984375 37.671875 58.78125 
Q 33.546875 64.59375 27.390625 64.59375 
Q 21.34375 64.59375 17.71875 59.46875 
Q 13.1875 52.9375 13.1875 35.296875 
z
" id="ArialMT-48"/>
      </defs>
      <g style="fill:#262626;" transform="translate(179.994045 402.310391)scale(0.165 -0.165)">
       <use xlink:href="#ArialMT-48"/>
      </g>
     </g>
    </g>
    <g id="xtick_2">
     <g id="line2d_2">
      <path clip-path="url(#pc5f004d6b9)" d="M 339.179221 378 
L 339.179221 51.84 
" style="fill:none;stroke:#ffffff;stroke-linecap:round;stroke-width:1.5;"/>
     </g>
     <g id="text_2">
      <!-- 20 -->
      <defs>
       <path d="M 50.34375 8.453125 
L 50.34375 0 
L 3.03125 0 
Q 2.9375 3.171875 4.046875 6.109375 
Q 5.859375 10.9375 9.828125 15.625 
Q 13.8125 20.3125 21.34375 26.46875 
Q 33.015625 36.03125 37.109375 41.625 
Q 41.21875 47.21875 41.21875 52.203125 
Q 41.21875 57.421875 37.46875 61 
Q 33.734375 64.59375 27.734375 64.59375 
Q 21.390625 64.59375 17.578125 60.78125 
Q 13.765625 56.984375 13.71875 50.25 
L 4.6875 51.171875 
Q 5.609375 61.28125 11.65625 66.578125 
Q 17.71875 71.875 27.9375 71.875 
Q 38.234375 71.875 44.234375 66.15625 
Q 50.25 60.453125 50.25 52 
Q 50.25 47.703125 48.484375 43.546875 
Q 46.734375 39.40625 42.65625 34.8125 
Q 38.578125 30.21875 29.109375 22.21875 
Q 21.1875 15.578125 18.9375 13.203125 
Q 16.703125 10.84375 15.234375 8.453125 
z
" id="ArialMT-50"/>
      </defs>
      <g style="fill:#262626;" transform="translate(330.003674 402.310391)scale(0.165 -0.165)">
       <use xlink:href="#ArialMT-50"/>
       <use x="55.615234" xlink:href="#ArialMT-48"/>
      </g>
     </g>
    </g>
    <g id="xtick_3">
     <g id="line2d_3">
      <path clip-path="url(#pc5f004d6b9)" d="M 493.776623 378 
L 493.776623 51.84 
" style="fill:none;stroke:#ffffff;stroke-linecap:round;stroke-width:1.5;"/>
     </g>
     <g id="text_3">
      <!-- 40 -->
      <defs>
       <path d="M 32.328125 0 
L 32.328125 17.140625 
L 1.265625 17.140625 
L 1.265625 25.203125 
L 33.9375 71.578125 
L 41.109375 71.578125 
L 41.109375 25.203125 
L 50.78125 25.203125 
L 50.78125 17.140625 
L 41.109375 17.140625 
L 41.109375 0 
z
M 32.328125 25.203125 
L 32.328125 57.46875 
L 9.90625 25.203125 
z
" id="ArialMT-52"/>
      </defs>
      <g style="fill:#262626;" transform="translate(484.601077 402.310391)scale(0.165 -0.165)">
       <use xlink:href="#ArialMT-52"/>
       <use x="55.615234" xlink:href="#ArialMT-48"/>
      </g>
     </g>
    </g>
    <g id="xtick_4">
     <g id="line2d_4">
      <path clip-path="url(#pc5f004d6b9)" d="M 648.374026 378 
L 648.374026 51.84 
" style="fill:none;stroke:#ffffff;stroke-linecap:round;stroke-width:1.5;"/>
     </g>
     <g id="text_4">
      <!-- 60 -->
      <defs>
       <path d="M 49.75 54.046875 
L 41.015625 53.375 
Q 39.84375 58.546875 37.703125 60.890625 
Q 34.125 64.65625 28.90625 64.65625 
Q 24.703125 64.65625 21.53125 62.3125 
Q 17.390625 59.28125 14.984375 53.46875 
Q 12.59375 47.65625 12.5 36.921875 
Q 15.671875 41.75 20.265625 44.09375 
Q 24.859375 46.4375 29.890625 46.4375 
Q 38.671875 46.4375 44.84375 39.96875 
Q 51.03125 33.5 51.03125 23.25 
Q 51.03125 16.5 48.125 10.71875 
Q 45.21875 4.9375 40.140625 1.859375 
Q 35.0625 -1.21875 28.609375 -1.21875 
Q 17.625 -1.21875 10.6875 6.859375 
Q 3.765625 14.9375 3.765625 33.5 
Q 3.765625 54.25 11.421875 63.671875 
Q 18.109375 71.875 29.4375 71.875 
Q 37.890625 71.875 43.28125 67.140625 
Q 48.6875 62.40625 49.75 54.046875 
z
M 13.875 23.1875 
Q 13.875 18.65625 15.796875 14.5 
Q 17.71875 10.359375 21.1875 8.171875 
Q 24.65625 6 28.46875 6 
Q 34.03125 6 38.03125 10.484375 
Q 42.046875 14.984375 42.046875 22.703125 
Q 42.046875 30.125 38.078125 34.390625 
Q 34.125 38.671875 28.125 38.671875 
Q 22.171875 38.671875 18.015625 34.390625 
Q 13.875 30.125 13.875 23.1875 
z
" id="ArialMT-54"/>
      </defs>
      <g style="fill:#262626;" transform="translate(639.198479 402.310391)scale(0.165 -0.165)">
       <use xlink:href="#ArialMT-54"/>
       <use x="55.615234" xlink:href="#ArialMT-48"/>
      </g>
     </g>
    </g>
    <g id="xtick_5">
     <g id="line2d_5">
      <path clip-path="url(#pc5f004d6b9)" d="M 802.971429 378 
L 802.971429 51.84 
" style="fill:none;stroke:#ffffff;stroke-linecap:round;stroke-width:1.5;"/>
     </g>
     <g id="text_5">
      <!-- 80 -->
      <defs>
       <path d="M 17.671875 38.8125 
Q 12.203125 40.828125 9.5625 44.53125 
Q 6.9375 48.25 6.9375 53.421875 
Q 6.9375 61.234375 12.546875 66.546875 
Q 18.171875 71.875 27.484375 71.875 
Q 36.859375 71.875 42.578125 66.421875 
Q 48.296875 60.984375 48.296875 53.171875 
Q 48.296875 48.1875 45.671875 44.5 
Q 43.0625 40.828125 37.75 38.8125 
Q 44.34375 36.671875 47.78125 31.875 
Q 51.21875 27.09375 51.21875 20.453125 
Q 51.21875 11.28125 44.71875 5.03125 
Q 38.234375 -1.21875 27.640625 -1.21875 
Q 17.046875 -1.21875 10.546875 5.046875 
Q 4.046875 11.328125 4.046875 20.703125 
Q 4.046875 27.6875 7.59375 32.390625 
Q 11.140625 37.109375 17.671875 38.8125 
z
M 15.921875 53.71875 
Q 15.921875 48.640625 19.1875 45.40625 
Q 22.46875 42.1875 27.6875 42.1875 
Q 32.765625 42.1875 36.015625 45.375 
Q 39.265625 48.578125 39.265625 53.21875 
Q 39.265625 58.0625 35.90625 61.359375 
Q 32.5625 64.65625 27.59375 64.65625 
Q 22.5625 64.65625 19.234375 61.421875 
Q 15.921875 58.203125 15.921875 53.71875 
z
M 13.09375 20.65625 
Q 13.09375 16.890625 14.875 13.375 
Q 16.65625 9.859375 20.171875 7.921875 
Q 23.6875 6 27.734375 6 
Q 34.03125 6 38.125 10.046875 
Q 42.234375 14.109375 42.234375 20.359375 
Q 42.234375 26.703125 38.015625 30.859375 
Q 33.796875 35.015625 27.4375 35.015625 
Q 21.234375 35.015625 17.15625 30.90625 
Q 13.09375 26.8125 13.09375 20.65625 
z
" id="ArialMT-56"/>
      </defs>
      <g style="fill:#262626;" transform="translate(793.795882 402.310391)scale(0.165 -0.165)">
       <use xlink:href="#ArialMT-56"/>
       <use x="55.615234" xlink:href="#ArialMT-48"/>
      </g>
     </g>
    </g>
    <g id="xtick_6">
     <g id="line2d_6">
      <path clip-path="url(#pc5f004d6b9)" d="M 957.568831 378 
L 957.568831 51.84 
" style="fill:none;stroke:#ffffff;stroke-linecap:round;stroke-width:1.5;"/>
     </g>
     <g id="text_6">
      <!-- 100 -->
      <defs>
       <path d="M 37.25 0 
L 28.46875 0 
L 28.46875 56 
Q 25.296875 52.984375 20.140625 49.953125 
Q 14.984375 46.921875 10.890625 45.40625 
L 10.890625 53.90625 
Q 18.265625 57.375 23.78125 62.296875 
Q 29.296875 67.234375 31.59375 71.875 
L 37.25 71.875 
z
" id="ArialMT-49"/>
      </defs>
      <g style="fill:#262626;" transform="translate(943.805511 402.310391)scale(0.165 -0.165)">
       <use xlink:href="#ArialMT-49"/>
       <use x="55.615234" xlink:href="#ArialMT-48"/>
       <use x="111.230469" xlink:href="#ArialMT-48"/>
      </g>
     </g>
    </g>
    <g id="text_7">
     <!-- Days since 1/22 -->
     <defs>
      <path d="M 7.71875 0 
L 7.71875 71.578125 
L 32.375 71.578125 
Q 40.71875 71.578125 45.125 70.5625 
Q 51.265625 69.140625 55.609375 65.4375 
Q 61.28125 60.640625 64.078125 53.1875 
Q 66.890625 45.75 66.890625 36.1875 
Q 66.890625 28.03125 64.984375 21.734375 
Q 63.09375 15.4375 60.109375 11.296875 
Q 57.125 7.171875 53.578125 4.796875 
Q 50.046875 2.4375 45.046875 1.21875 
Q 40.046875 0 33.546875 0 
z
M 17.1875 8.453125 
L 32.46875 8.453125 
Q 39.546875 8.453125 43.578125 9.765625 
Q 47.609375 11.078125 50 13.484375 
Q 53.375 16.84375 55.25 22.53125 
Q 57.125 28.21875 57.125 36.328125 
Q 57.125 47.5625 53.4375 53.59375 
Q 49.75 59.625 44.484375 61.671875 
Q 40.671875 63.140625 32.234375 63.140625 
L 17.1875 63.140625 
z
" id="ArialMT-68"/>
      <path d="M 40.4375 6.390625 
Q 35.546875 2.25 31.03125 0.53125 
Q 26.515625 -1.171875 21.34375 -1.171875 
Q 12.796875 -1.171875 8.203125 3 
Q 3.609375 7.171875 3.609375 13.671875 
Q 3.609375 17.484375 5.34375 20.625 
Q 7.078125 23.78125 9.890625 25.6875 
Q 12.703125 27.59375 16.21875 28.5625 
Q 18.796875 29.25 24.03125 29.890625 
Q 34.671875 31.15625 39.703125 32.90625 
Q 39.75 34.71875 39.75 35.203125 
Q 39.75 40.578125 37.25 42.78125 
Q 33.890625 45.75 27.25 45.75 
Q 21.046875 45.75 18.09375 43.578125 
Q 15.140625 41.40625 13.71875 35.890625 
L 5.125 37.0625 
Q 6.296875 42.578125 8.984375 45.96875 
Q 11.671875 49.359375 16.75 51.1875 
Q 21.828125 53.03125 28.515625 53.03125 
Q 35.15625 53.03125 39.296875 51.46875 
Q 43.453125 49.90625 45.40625 47.53125 
Q 47.359375 45.171875 48.140625 41.546875 
Q 48.578125 39.3125 48.578125 33.453125 
L 48.578125 21.734375 
Q 48.578125 9.46875 49.140625 6.21875 
Q 49.703125 2.984375 51.375 0 
L 42.1875 0 
Q 40.828125 2.734375 40.4375 6.390625 
z
M 39.703125 26.03125 
Q 34.90625 24.078125 25.34375 22.703125 
Q 19.921875 21.921875 17.671875 20.9375 
Q 15.4375 19.96875 14.203125 18.09375 
Q 12.984375 16.21875 12.984375 13.921875 
Q 12.984375 10.40625 15.640625 8.0625 
Q 18.3125 5.71875 23.4375 5.71875 
Q 28.515625 5.71875 32.46875 7.9375 
Q 36.421875 10.15625 38.28125 14.015625 
Q 39.703125 17 39.703125 22.796875 
z
" id="ArialMT-97"/>
      <path d="M 6.203125 -19.96875 
L 5.21875 -11.71875 
Q 8.109375 -12.5 10.25 -12.5 
Q 13.1875 -12.5 14.9375 -11.515625 
Q 16.703125 -10.546875 17.828125 -8.796875 
Q 18.65625 -7.46875 20.515625 -2.25 
Q 20.75 -1.515625 21.296875 -0.09375 
L 1.609375 51.859375 
L 11.078125 51.859375 
L 21.875 21.828125 
Q 23.96875 16.109375 25.640625 9.8125 
Q 27.15625 15.875 29.25 21.625 
L 40.328125 51.859375 
L 49.125 51.859375 
L 29.390625 -0.875 
Q 26.21875 -9.421875 24.46875 -12.640625 
Q 22.125 -17 19.09375 -19.015625 
Q 16.0625 -21.046875 11.859375 -21.046875 
Q 9.328125 -21.046875 6.203125 -19.96875 
z
" id="ArialMT-121"/>
      <path d="M 3.078125 15.484375 
L 11.765625 16.84375 
Q 12.5 11.625 15.84375 8.84375 
Q 19.1875 6.0625 25.203125 6.0625 
Q 31.25 6.0625 34.171875 8.515625 
Q 37.109375 10.984375 37.109375 14.3125 
Q 37.109375 17.28125 34.515625 19 
Q 32.71875 20.171875 25.53125 21.96875 
Q 15.875 24.421875 12.140625 26.203125 
Q 8.40625 27.984375 6.46875 31.125 
Q 4.546875 34.28125 4.546875 38.09375 
Q 4.546875 41.546875 6.125 44.5 
Q 7.71875 47.46875 10.453125 49.421875 
Q 12.5 50.921875 16.03125 51.96875 
Q 19.578125 53.03125 23.640625 53.03125 
Q 29.734375 53.03125 34.34375 51.265625 
Q 38.96875 49.515625 41.15625 46.5 
Q 43.359375 43.5 44.1875 38.484375 
L 35.59375 37.3125 
Q 35.015625 41.3125 32.203125 43.546875 
Q 29.390625 45.796875 24.265625 45.796875 
Q 18.21875 45.796875 15.625 43.796875 
Q 13.03125 41.796875 13.03125 39.109375 
Q 13.03125 37.40625 14.109375 36.03125 
Q 15.1875 34.625 17.484375 33.6875 
Q 18.796875 33.203125 25.25 31.453125 
Q 34.578125 28.953125 38.25 27.359375 
Q 41.9375 25.78125 44.03125 22.75 
Q 46.140625 19.734375 46.140625 15.234375 
Q 46.140625 10.84375 43.578125 6.953125 
Q 41.015625 3.078125 36.171875 0.953125 
Q 31.34375 -1.171875 25.25 -1.171875 
Q 15.140625 -1.171875 9.84375 3.03125 
Q 4.546875 7.234375 3.078125 15.484375 
z
" id="ArialMT-115"/>
      <path id="ArialMT-32"/>
      <path d="M 6.640625 61.46875 
L 6.640625 71.578125 
L 15.4375 71.578125 
L 15.4375 61.46875 
z
M 6.640625 0 
L 6.640625 51.859375 
L 15.4375 51.859375 
L 15.4375 0 
z
" id="ArialMT-105"/>
      <path d="M 6.59375 0 
L 6.59375 51.859375 
L 14.5 51.859375 
L 14.5 44.484375 
Q 20.21875 53.03125 31 53.03125 
Q 35.6875 53.03125 39.625 51.34375 
Q 43.5625 49.65625 45.515625 46.921875 
Q 47.46875 44.1875 48.25 40.4375 
Q 48.734375 37.984375 48.734375 31.890625 
L 48.734375 0 
L 39.9375 0 
L 39.9375 31.546875 
Q 39.9375 36.921875 38.90625 39.578125 
Q 37.890625 42.234375 35.28125 43.8125 
Q 32.671875 45.40625 29.15625 45.40625 
Q 23.53125 45.40625 19.453125 41.84375 
Q 15.375 38.28125 15.375 28.328125 
L 15.375 0 
z
" id="ArialMT-110"/>
      <path d="M 40.4375 19 
L 49.078125 17.875 
Q 47.65625 8.9375 41.8125 3.875 
Q 35.984375 -1.171875 27.484375 -1.171875 
Q 16.84375 -1.171875 10.375 5.78125 
Q 3.90625 12.75 3.90625 25.734375 
Q 3.90625 34.125 6.6875 40.421875 
Q 9.46875 46.734375 15.15625 49.875 
Q 20.84375 53.03125 27.546875 53.03125 
Q 35.984375 53.03125 41.359375 48.75 
Q 46.734375 44.484375 48.25 36.625 
L 39.703125 35.296875 
Q 38.484375 40.53125 35.375 43.15625 
Q 32.28125 45.796875 27.875 45.796875 
Q 21.234375 45.796875 17.078125 41.03125 
Q 12.9375 36.28125 12.9375 25.984375 
Q 12.9375 15.53125 16.9375 10.796875 
Q 20.953125 6.0625 27.390625 6.0625 
Q 32.5625 6.0625 36.03125 9.234375 
Q 39.5 12.40625 40.4375 19 
z
" id="ArialMT-99"/>
      <path d="M 42.09375 16.703125 
L 51.171875 15.578125 
Q 49.03125 7.625 43.21875 3.21875 
Q 37.40625 -1.171875 28.375 -1.171875 
Q 17 -1.171875 10.328125 5.828125 
Q 3.65625 12.84375 3.65625 25.484375 
Q 3.65625 38.578125 10.390625 45.796875 
Q 17.140625 53.03125 27.875 53.03125 
Q 38.28125 53.03125 44.875 45.953125 
Q 51.46875 38.875 51.46875 26.03125 
Q 51.46875 25.25 51.421875 23.6875 
L 12.75 23.6875 
Q 13.234375 15.140625 17.578125 10.59375 
Q 21.921875 6.0625 28.421875 6.0625 
Q 33.25 6.0625 36.671875 8.59375 
Q 40.09375 11.140625 42.09375 16.703125 
z
M 13.234375 30.90625 
L 42.1875 30.90625 
Q 41.609375 37.453125 38.875 40.71875 
Q 34.671875 45.796875 27.984375 45.796875 
Q 21.921875 45.796875 17.796875 41.75 
Q 13.671875 37.703125 13.234375 30.90625 
z
" id="ArialMT-101"/>
      <path d="M 0 -1.21875 
L 20.75 72.796875 
L 27.78125 72.796875 
L 7.078125 -1.21875 
z
" id="ArialMT-47"/>
     </defs>
     <g style="fill:#262626;" transform="translate(526.370625 422.693203)scale(0.18 -0.18)">
      <use xlink:href="#ArialMT-68"/>
      <use x="72.216797" xlink:href="#ArialMT-97"/>
      <use x="127.832031" xlink:href="#ArialMT-121"/>
      <use x="177.832031" xlink:href="#ArialMT-115"/>
      <use x="227.832031" xlink:href="#ArialMT-32"/>
      <use x="255.615234" xlink:href="#ArialMT-115"/>
      <use x="305.615234" xlink:href="#ArialMT-105"/>
      <use x="327.832031" xlink:href="#ArialMT-110"/>
      <use x="383.447266" xlink:href="#ArialMT-99"/>
      <use x="433.447266" xlink:href="#ArialMT-101"/>
      <use x="489.0625" xlink:href="#ArialMT-32"/>
      <use x="516.845703" xlink:href="#ArialMT-49"/>
      <use x="572.460938" xlink:href="#ArialMT-47"/>
      <use x="600.244141" xlink:href="#ArialMT-50"/>
      <use x="655.859375" xlink:href="#ArialMT-50"/>
     </g>
    </g>
   </g>
   <g id="matplotlib.axis_2">
    <g id="ytick_1">
     <g id="line2d_7">
      <path clip-path="url(#pc5f004d6b9)" d="M 144 363.174546 
L 1036.8 363.174546 
" style="fill:none;stroke:#ffffff;stroke-linecap:round;stroke-width:1.5;"/>
     </g>
     <g id="text_8">
      <!-- 0.0 -->
      <defs>
       <path d="M 9.078125 0 
L 9.078125 10.015625 
L 19.09375 10.015625 
L 19.09375 0 
z
" id="ArialMT-46"/>
      </defs>
      <g style="fill:#262626;" transform="translate(108.565 369.079742)scale(0.165 -0.165)">
       <use xlink:href="#ArialMT-48"/>
       <use x="55.615234" xlink:href="#ArialMT-46"/>
       <use x="83.398438" xlink:href="#ArialMT-48"/>
      </g>
     </g>
    </g>
    <g id="ytick_2">
     <g id="line2d_8">
      <path clip-path="url(#pc5f004d6b9)" d="M 144 312.586429 
L 1036.8 312.586429 
" style="fill:none;stroke:#ffffff;stroke-linecap:round;stroke-width:1.5;"/>
     </g>
     <g id="text_9">
      <!-- 0.5 -->
      <defs>
       <path d="M 4.15625 18.75 
L 13.375 19.53125 
Q 14.40625 12.796875 18.140625 9.390625 
Q 21.875 6 27.15625 6 
Q 33.5 6 37.890625 10.78125 
Q 42.28125 15.578125 42.28125 23.484375 
Q 42.28125 31 38.0625 35.34375 
Q 33.84375 39.703125 27 39.703125 
Q 22.75 39.703125 19.328125 37.765625 
Q 15.921875 35.84375 13.96875 32.765625 
L 5.71875 33.84375 
L 12.640625 70.609375 
L 48.25 70.609375 
L 48.25 62.203125 
L 19.671875 62.203125 
L 15.828125 42.96875 
Q 22.265625 47.46875 29.34375 47.46875 
Q 38.71875 47.46875 45.15625 40.96875 
Q 51.609375 34.46875 51.609375 24.265625 
Q 51.609375 14.546875 45.953125 7.46875 
Q 39.0625 -1.21875 27.15625 -1.21875 
Q 17.390625 -1.21875 11.203125 4.25 
Q 5.03125 9.71875 4.15625 18.75 
z
" id="ArialMT-53"/>
      </defs>
      <g style="fill:#262626;" transform="translate(108.565 318.491625)scale(0.165 -0.165)">
       <use xlink:href="#ArialMT-48"/>
       <use x="55.615234" xlink:href="#ArialMT-46"/>
       <use x="83.398438" xlink:href="#ArialMT-53"/>
      </g>
     </g>
    </g>
    <g id="ytick_3">
     <g id="line2d_9">
      <path clip-path="url(#pc5f004d6b9)" d="M 144 261.998312 
L 1036.8 261.998312 
" style="fill:none;stroke:#ffffff;stroke-linecap:round;stroke-width:1.5;"/>
     </g>
     <g id="text_10">
      <!-- 1.0 -->
      <g style="fill:#262626;" transform="translate(108.565 267.903508)scale(0.165 -0.165)">
       <use xlink:href="#ArialMT-49"/>
       <use x="55.615234" xlink:href="#ArialMT-46"/>
       <use x="83.398438" xlink:href="#ArialMT-48"/>
      </g>
     </g>
    </g>
    <g id="ytick_4">
     <g id="line2d_10">
      <path clip-path="url(#pc5f004d6b9)" d="M 144 211.410195 
L 1036.8 211.410195 
" style="fill:none;stroke:#ffffff;stroke-linecap:round;stroke-width:1.5;"/>
     </g>
     <g id="text_11">
      <!-- 1.5 -->
      <g style="fill:#262626;" transform="translate(108.565 217.315391)scale(0.165 -0.165)">
       <use xlink:href="#ArialMT-49"/>
       <use x="55.615234" xlink:href="#ArialMT-46"/>
       <use x="83.398438" xlink:href="#ArialMT-53"/>
      </g>
     </g>
    </g>
    <g id="ytick_5">
     <g id="line2d_11">
      <path clip-path="url(#pc5f004d6b9)" d="M 144 160.822078 
L 1036.8 160.822078 
" style="fill:none;stroke:#ffffff;stroke-linecap:round;stroke-width:1.5;"/>
     </g>
     <g id="text_12">
      <!-- 2.0 -->
      <g style="fill:#262626;" transform="translate(108.565 166.727274)scale(0.165 -0.165)">
       <use xlink:href="#ArialMT-50"/>
       <use x="55.615234" xlink:href="#ArialMT-46"/>
       <use x="83.398438" xlink:href="#ArialMT-48"/>
      </g>
     </g>
    </g>
    <g id="ytick_6">
     <g id="line2d_12">
      <path clip-path="url(#pc5f004d6b9)" d="M 144 110.233961 
L 1036.8 110.233961 
" style="fill:none;stroke:#ffffff;stroke-linecap:round;stroke-width:1.5;"/>
     </g>
     <g id="text_13">
      <!-- 2.5 -->
      <g style="fill:#262626;" transform="translate(108.565 116.139157)scale(0.165 -0.165)">
       <use xlink:href="#ArialMT-50"/>
       <use x="55.615234" xlink:href="#ArialMT-46"/>
       <use x="83.398438" xlink:href="#ArialMT-53"/>
      </g>
     </g>
    </g>
    <g id="ytick_7">
     <g id="line2d_13">
      <path clip-path="url(#pc5f004d6b9)" d="M 144 59.645844 
L 1036.8 59.645844 
" style="fill:none;stroke:#ffffff;stroke-linecap:round;stroke-width:1.5;"/>
     </g>
     <g id="text_14">
      <!-- 3.0 -->
      <defs>
       <path d="M 4.203125 18.890625 
L 12.984375 20.0625 
Q 14.5 12.59375 18.140625 9.296875 
Q 21.78125 6 27 6 
Q 33.203125 6 37.46875 10.296875 
Q 41.75 14.59375 41.75 20.953125 
Q 41.75 27 37.796875 30.921875 
Q 33.84375 34.859375 27.734375 34.859375 
Q 25.25 34.859375 21.53125 33.890625 
L 22.515625 41.609375 
Q 23.390625 41.5 23.921875 41.5 
Q 29.546875 41.5 34.03125 44.421875 
Q 38.53125 47.359375 38.53125 53.46875 
Q 38.53125 58.296875 35.25 61.46875 
Q 31.984375 64.65625 26.8125 64.65625 
Q 21.6875 64.65625 18.265625 61.421875 
Q 14.84375 58.203125 13.875 51.765625 
L 5.078125 53.328125 
Q 6.6875 62.15625 12.390625 67.015625 
Q 18.109375 71.875 26.609375 71.875 
Q 32.46875 71.875 37.390625 69.359375 
Q 42.328125 66.84375 44.9375 62.5 
Q 47.5625 58.15625 47.5625 53.265625 
Q 47.5625 48.640625 45.0625 44.828125 
Q 42.578125 41.015625 37.703125 38.765625 
Q 44.046875 37.3125 47.5625 32.6875 
Q 51.078125 28.078125 51.078125 21.140625 
Q 51.078125 11.765625 44.234375 5.25 
Q 37.40625 -1.265625 26.953125 -1.265625 
Q 17.53125 -1.265625 11.296875 4.34375 
Q 5.078125 9.96875 4.203125 18.890625 
z
" id="ArialMT-51"/>
      </defs>
      <g style="fill:#262626;" transform="translate(108.565 65.55104)scale(0.165 -0.165)">
       <use xlink:href="#ArialMT-51"/>
       <use x="55.615234" xlink:href="#ArialMT-46"/>
       <use x="83.398438" xlink:href="#ArialMT-48"/>
      </g>
     </g>
    </g>
    <g id="text_15">
     <!-- Confirmed cases -->
     <defs>
      <path d="M 58.796875 25.09375 
L 68.265625 22.703125 
Q 65.28125 11.03125 57.546875 4.90625 
Q 49.8125 -1.21875 38.625 -1.21875 
Q 27.046875 -1.21875 19.796875 3.484375 
Q 12.546875 8.203125 8.765625 17.140625 
Q 4.984375 26.078125 4.984375 36.328125 
Q 4.984375 47.515625 9.25 55.828125 
Q 13.53125 64.15625 21.40625 68.46875 
Q 29.296875 72.796875 38.765625 72.796875 
Q 49.515625 72.796875 56.828125 67.328125 
Q 64.15625 61.859375 67.046875 51.953125 
L 57.71875 49.75 
Q 55.21875 57.5625 50.484375 61.125 
Q 45.75 64.703125 38.578125 64.703125 
Q 30.328125 64.703125 24.78125 60.734375 
Q 19.234375 56.78125 16.984375 50.109375 
Q 14.75 43.453125 14.75 36.375 
Q 14.75 27.25 17.40625 20.4375 
Q 20.0625 13.625 25.671875 10.25 
Q 31.296875 6.890625 37.84375 6.890625 
Q 45.796875 6.890625 51.3125 11.46875 
Q 56.84375 16.0625 58.796875 25.09375 
z
" id="ArialMT-67"/>
      <path d="M 3.328125 25.921875 
Q 3.328125 40.328125 11.328125 47.265625 
Q 18.015625 53.03125 27.640625 53.03125 
Q 38.328125 53.03125 45.109375 46.015625 
Q 51.90625 39.015625 51.90625 26.65625 
Q 51.90625 16.65625 48.90625 10.90625 
Q 45.90625 5.171875 40.15625 2 
Q 34.421875 -1.171875 27.640625 -1.171875 
Q 16.75 -1.171875 10.03125 5.8125 
Q 3.328125 12.796875 3.328125 25.921875 
z
M 12.359375 25.921875 
Q 12.359375 15.96875 16.703125 11.015625 
Q 21.046875 6.0625 27.640625 6.0625 
Q 34.1875 6.0625 38.53125 11.03125 
Q 42.875 16.015625 42.875 26.21875 
Q 42.875 35.84375 38.5 40.796875 
Q 34.125 45.75 27.640625 45.75 
Q 21.046875 45.75 16.703125 40.8125 
Q 12.359375 35.890625 12.359375 25.921875 
z
" id="ArialMT-111"/>
      <path d="M 8.6875 0 
L 8.6875 45.015625 
L 0.921875 45.015625 
L 0.921875 51.859375 
L 8.6875 51.859375 
L 8.6875 57.375 
Q 8.6875 62.59375 9.625 65.140625 
Q 10.890625 68.5625 14.078125 70.671875 
Q 17.28125 72.796875 23.046875 72.796875 
Q 26.765625 72.796875 31.25 71.921875 
L 29.9375 64.265625 
Q 27.203125 64.75 24.75 64.75 
Q 20.75 64.75 19.09375 63.03125 
Q 17.4375 61.328125 17.4375 56.640625 
L 17.4375 51.859375 
L 27.546875 51.859375 
L 27.546875 45.015625 
L 17.4375 45.015625 
L 17.4375 0 
z
" id="ArialMT-102"/>
      <path d="M 6.5 0 
L 6.5 51.859375 
L 14.40625 51.859375 
L 14.40625 44 
Q 17.4375 49.515625 20 51.265625 
Q 22.5625 53.03125 25.640625 53.03125 
Q 30.078125 53.03125 34.671875 50.203125 
L 31.640625 42.046875 
Q 28.421875 43.953125 25.203125 43.953125 
Q 22.3125 43.953125 20.015625 42.21875 
Q 17.71875 40.484375 16.75 37.40625 
Q 15.28125 32.71875 15.28125 27.15625 
L 15.28125 0 
z
" id="ArialMT-114"/>
      <path d="M 6.59375 0 
L 6.59375 51.859375 
L 14.453125 51.859375 
L 14.453125 44.578125 
Q 16.890625 48.390625 20.9375 50.703125 
Q 25 53.03125 30.171875 53.03125 
Q 35.9375 53.03125 39.625 50.640625 
Q 43.3125 48.25 44.828125 43.953125 
Q 50.984375 53.03125 60.84375 53.03125 
Q 68.5625 53.03125 72.703125 48.75 
Q 76.859375 44.484375 76.859375 35.59375 
L 76.859375 0 
L 68.109375 0 
L 68.109375 32.671875 
Q 68.109375 37.9375 67.25 40.25 
Q 66.40625 42.578125 64.15625 43.984375 
Q 61.921875 45.40625 58.890625 45.40625 
Q 53.421875 45.40625 49.796875 41.765625 
Q 46.1875 38.140625 46.1875 30.125 
L 46.1875 0 
L 37.40625 0 
L 37.40625 33.6875 
Q 37.40625 39.546875 35.25 42.46875 
Q 33.109375 45.40625 28.21875 45.40625 
Q 24.515625 45.40625 21.359375 43.453125 
Q 18.21875 41.5 16.796875 37.734375 
Q 15.375 33.984375 15.375 26.90625 
L 15.375 0 
z
" id="ArialMT-109"/>
      <path d="M 40.234375 0 
L 40.234375 6.546875 
Q 35.296875 -1.171875 25.734375 -1.171875 
Q 19.53125 -1.171875 14.328125 2.25 
Q 9.125 5.671875 6.265625 11.796875 
Q 3.421875 17.921875 3.421875 25.875 
Q 3.421875 33.640625 6 39.96875 
Q 8.59375 46.296875 13.765625 49.65625 
Q 18.953125 53.03125 25.34375 53.03125 
Q 30.03125 53.03125 33.6875 51.046875 
Q 37.359375 49.078125 39.65625 45.90625 
L 39.65625 71.578125 
L 48.390625 71.578125 
L 48.390625 0 
z
M 12.453125 25.875 
Q 12.453125 15.921875 16.640625 10.984375 
Q 20.84375 6.0625 26.5625 6.0625 
Q 32.328125 6.0625 36.34375 10.765625 
Q 40.375 15.484375 40.375 25.140625 
Q 40.375 35.796875 36.265625 40.765625 
Q 32.171875 45.75 26.171875 45.75 
Q 20.3125 45.75 16.375 40.96875 
Q 12.453125 36.1875 12.453125 25.875 
z
" id="ArialMT-100"/>
     </defs>
     <g style="fill:#262626;" transform="translate(100.9875 282.4425)rotate(-90)scale(0.18 -0.18)">
      <use xlink:href="#ArialMT-67"/>
      <use x="72.216797" xlink:href="#ArialMT-111"/>
      <use x="127.832031" xlink:href="#ArialMT-110"/>
      <use x="183.447266" xlink:href="#ArialMT-102"/>
      <use x="211.230469" xlink:href="#ArialMT-105"/>
      <use x="233.447266" xlink:href="#ArialMT-114"/>
      <use x="266.748047" xlink:href="#ArialMT-109"/>
      <use x="350.048828" xlink:href="#ArialMT-101"/>
      <use x="405.664062" xlink:href="#ArialMT-100"/>
      <use x="461.279297" xlink:href="#ArialMT-32"/>
      <use x="489.0625" xlink:href="#ArialMT-99"/>
      <use x="539.0625" xlink:href="#ArialMT-97"/>
      <use x="594.677734" xlink:href="#ArialMT-115"/>
      <use x="644.677734" xlink:href="#ArialMT-101"/>
      <use x="700.292969" xlink:href="#ArialMT-115"/>
     </g>
    </g>
    <g id="text_16">
     <!-- 1e8 -->
     <g style="fill:#262626;" transform="translate(144 48.84)scale(0.165 -0.165)">
      <use xlink:href="#ArialMT-49"/>
      <use x="55.615234" xlink:href="#ArialMT-101"/>
      <use x="111.230469" xlink:href="#ArialMT-56"/>
     </g>
    </g>
   </g>
   <g id="line2d_14">
    <path clip-path="url(#pc5f004d6b9)" d="M 184.581818 363.174545 
L 192.311688 363.174545 
L 200.041558 363.174544 
L 207.771429 363.174544 
L 215.501299 363.174541 
L 223.231169 363.174541 
L 230.961039 363.174541 
L 238.690909 363.174541 
L 246.420779 363.174541 
L 254.150649 363.174539 
L 261.880519 363.174538 
L 269.61039 363.174538 
L 277.34026 363.174535 
L 285.07013 363.174535 
L 292.8 363.174535 
L 300.52987 363.174535 
L 308.25974 363.174535 
L 315.98961 363.174535 
L 323.719481 363.174535 
L 331.449351 363.174535 
L 339.179221 363.174534 
L 346.909091 363.174534 
L 354.638961 363.174533 
L 362.368831 363.174533 
L 370.098701 363.174533 
L 377.828571 363.174533 
L 385.558442 363.174533 
L 393.288312 363.174533 
L 401.018182 363.174533 
L 408.748052 363.174533 
L 416.477922 363.174531 
L 424.207792 363.174531 
L 431.937662 363.174531 
L 439.667532 363.174495 
L 447.397403 363.174495 
L 455.127273 363.174489 
L 462.857143 363.174488 
L 470.587013 363.174486 
L 478.316883 363.174478 
L 486.046753 363.174472 
L 493.776623 363.174447 
L 501.506494 363.174427 
L 509.236364 363.174396 
L 516.966234 363.174327 
L 524.696104 363.174281 
L 532.425974 363.17414 
L 540.155844 363.174022 
L 547.885714 363.173957 
L 555.615584 363.173576 
L 563.345455 363.17325 
L 571.075325 363.172864 
L 578.805195 363.172342 
L 586.535065 363.171787 
L 594.264935 363.171006 
L 601.994805 363.16986 
L 609.724675 363.16805 
L 617.454545 363.166672 
L 625.184416 363.160638 
L 632.914286 363.155047 
L 640.644156 363.148645 
L 648.374026 363.140879 
L 656.103896 363.130188 
L 663.833766 363.120178 
L 671.563636 363.107995 
L 679.293506 363.089724 
L 687.023377 363.071694 
L 694.753247 363.051653 
L 702.483117 363.03198 
L 710.212987 363.010812 
L 717.942857 362.984161 
L 725.672727 362.958796 
L 733.402597 362.928059 
L 741.132468 362.895941 
L 748.862338 362.862266 
L 756.592208 362.833783 
L 764.322078 362.803921 
L 772.051948 362.772754 
L 779.781818 362.74085 
L 787.511688 362.706323 
L 795.241558 362.672171 
L 802.971429 362.641959 
L 810.701299 362.612702 
L 818.431169 362.587098 
L 826.161039 362.559729 
L 833.890909 362.530712 
L 841.620779 362.499102 
L 849.350649 362.46661 
L 857.080519 362.433737 
L 864.81039 362.406812 
L 872.54026 362.380995 
L 880.27013 362.352959 
L 888 362.324995 
" style="fill:none;stroke:#0a26b2;stroke-linecap:round;"/>
    <defs>
     <path d="M 0 4 
C 1.060812 4 2.078319 3.578535 2.828427 2.828427 
C 3.578535 2.078319 4 1.060812 4 0 
C 4 -1.060812 3.578535 -2.078319 2.828427 -2.828427 
C 2.078319 -3.578535 1.060812 -4 0 -4 
C -1.060812 -4 -2.078319 -3.578535 -2.828427 -2.828427 
C -3.578535 -2.078319 -4 -1.060812 -4 0 
C -4 1.060812 -3.578535 2.078319 -2.828427 2.828427 
C -2.078319 3.578535 -1.060812 4 0 4 
z
" id="m09bd60fd62" style="stroke:#0a26b2;stroke-width:0.75;"/>
    </defs>
    <g clip-path="url(#pc5f004d6b9)">
     <use style="fill:#0a26b2;stroke:#0a26b2;stroke-width:0.75;" x="184.581818" xlink:href="#m09bd60fd62" y="363.174545"/>
     <use style="fill:#0a26b2;stroke:#0a26b2;stroke-width:0.75;" x="192.311688" xlink:href="#m09bd60fd62" y="363.174545"/>
     <use style="fill:#0a26b2;stroke:#0a26b2;stroke-width:0.75;" x="200.041558" xlink:href="#m09bd60fd62" y="363.174544"/>
     <use style="fill:#0a26b2;stroke:#0a26b2;stroke-width:0.75;" x="207.771429" xlink:href="#m09bd60fd62" y="363.174544"/>
     <use style="fill:#0a26b2;stroke:#0a26b2;stroke-width:0.75;" x="215.501299" xlink:href="#m09bd60fd62" y="363.174541"/>
     <use style="fill:#0a26b2;stroke:#0a26b2;stroke-width:0.75;" x="223.231169" xlink:href="#m09bd60fd62" y="363.174541"/>
     <use style="fill:#0a26b2;stroke:#0a26b2;stroke-width:0.75;" x="230.961039" xlink:href="#m09bd60fd62" y="363.174541"/>
     <use style="fill:#0a26b2;stroke:#0a26b2;stroke-width:0.75;" x="238.690909" xlink:href="#m09bd60fd62" y="363.174541"/>
     <use style="fill:#0a26b2;stroke:#0a26b2;stroke-width:0.75;" x="246.420779" xlink:href="#m09bd60fd62" y="363.174541"/>
     <use style="fill:#0a26b2;stroke:#0a26b2;stroke-width:0.75;" x="254.150649" xlink:href="#m09bd60fd62" y="363.174539"/>
     <use style="fill:#0a26b2;stroke:#0a26b2;stroke-width:0.75;" x="261.880519" xlink:href="#m09bd60fd62" y="363.174538"/>
     <use style="fill:#0a26b2;stroke:#0a26b2;stroke-width:0.75;" x="269.61039" xlink:href="#m09bd60fd62" y="363.174538"/>
     <use style="fill:#0a26b2;stroke:#0a26b2;stroke-width:0.75;" x="277.34026" xlink:href="#m09bd60fd62" y="363.174535"/>
     <use style="fill:#0a26b2;stroke:#0a26b2;stroke-width:0.75;" x="285.07013" xlink:href="#m09bd60fd62" y="363.174535"/>
     <use style="fill:#0a26b2;stroke:#0a26b2;stroke-width:0.75;" x="292.8" xlink:href="#m09bd60fd62" y="363.174535"/>
     <use style="fill:#0a26b2;stroke:#0a26b2;stroke-width:0.75;" x="300.52987" xlink:href="#m09bd60fd62" y="363.174535"/>
     <use style="fill:#0a26b2;stroke:#0a26b2;stroke-width:0.75;" x="308.25974" xlink:href="#m09bd60fd62" y="363.174535"/>
     <use style="fill:#0a26b2;stroke:#0a26b2;stroke-width:0.75;" x="315.98961" xlink:href="#m09bd60fd62" y="363.174535"/>
     <use style="fill:#0a26b2;stroke:#0a26b2;stroke-width:0.75;" x="323.719481" xlink:href="#m09bd60fd62" y="363.174535"/>
     <use style="fill:#0a26b2;stroke:#0a26b2;stroke-width:0.75;" x="331.449351" xlink:href="#m09bd60fd62" y="363.174535"/>
     <use style="fill:#0a26b2;stroke:#0a26b2;stroke-width:0.75;" x="339.179221" xlink:href="#m09bd60fd62" y="363.174534"/>
     <use style="fill:#0a26b2;stroke:#0a26b2;stroke-width:0.75;" x="346.909091" xlink:href="#m09bd60fd62" y="363.174534"/>
     <use style="fill:#0a26b2;stroke:#0a26b2;stroke-width:0.75;" x="354.638961" xlink:href="#m09bd60fd62" y="363.174533"/>
     <use style="fill:#0a26b2;stroke:#0a26b2;stroke-width:0.75;" x="362.368831" xlink:href="#m09bd60fd62" y="363.174533"/>
     <use style="fill:#0a26b2;stroke:#0a26b2;stroke-width:0.75;" x="370.098701" xlink:href="#m09bd60fd62" y="363.174533"/>
     <use style="fill:#0a26b2;stroke:#0a26b2;stroke-width:0.75;" x="377.828571" xlink:href="#m09bd60fd62" y="363.174533"/>
     <use style="fill:#0a26b2;stroke:#0a26b2;stroke-width:0.75;" x="385.558442" xlink:href="#m09bd60fd62" y="363.174533"/>
     <use style="fill:#0a26b2;stroke:#0a26b2;stroke-width:0.75;" x="393.288312" xlink:href="#m09bd60fd62" y="363.174533"/>
     <use style="fill:#0a26b2;stroke:#0a26b2;stroke-width:0.75;" x="401.018182" xlink:href="#m09bd60fd62" y="363.174533"/>
     <use style="fill:#0a26b2;stroke:#0a26b2;stroke-width:0.75;" x="408.748052" xlink:href="#m09bd60fd62" y="363.174533"/>
     <use style="fill:#0a26b2;stroke:#0a26b2;stroke-width:0.75;" x="416.477922" xlink:href="#m09bd60fd62" y="363.174531"/>
     <use style="fill:#0a26b2;stroke:#0a26b2;stroke-width:0.75;" x="424.207792" xlink:href="#m09bd60fd62" y="363.174531"/>
     <use style="fill:#0a26b2;stroke:#0a26b2;stroke-width:0.75;" x="431.937662" xlink:href="#m09bd60fd62" y="363.174531"/>
     <use style="fill:#0a26b2;stroke:#0a26b2;stroke-width:0.75;" x="439.667532" xlink:href="#m09bd60fd62" y="363.174495"/>
     <use style="fill:#0a26b2;stroke:#0a26b2;stroke-width:0.75;" x="447.397403" xlink:href="#m09bd60fd62" y="363.174495"/>
     <use style="fill:#0a26b2;stroke:#0a26b2;stroke-width:0.75;" x="455.127273" xlink:href="#m09bd60fd62" y="363.174489"/>
     <use style="fill:#0a26b2;stroke:#0a26b2;stroke-width:0.75;" x="462.857143" xlink:href="#m09bd60fd62" y="363.174488"/>
     <use style="fill:#0a26b2;stroke:#0a26b2;stroke-width:0.75;" x="470.587013" xlink:href="#m09bd60fd62" y="363.174486"/>
     <use style="fill:#0a26b2;stroke:#0a26b2;stroke-width:0.75;" x="478.316883" xlink:href="#m09bd60fd62" y="363.174478"/>
     <use style="fill:#0a26b2;stroke:#0a26b2;stroke-width:0.75;" x="486.046753" xlink:href="#m09bd60fd62" y="363.174472"/>
     <use style="fill:#0a26b2;stroke:#0a26b2;stroke-width:0.75;" x="493.776623" xlink:href="#m09bd60fd62" y="363.174447"/>
     <use style="fill:#0a26b2;stroke:#0a26b2;stroke-width:0.75;" x="501.506494" xlink:href="#m09bd60fd62" y="363.174427"/>
     <use style="fill:#0a26b2;stroke:#0a26b2;stroke-width:0.75;" x="509.236364" xlink:href="#m09bd60fd62" y="363.174396"/>
     <use style="fill:#0a26b2;stroke:#0a26b2;stroke-width:0.75;" x="516.966234" xlink:href="#m09bd60fd62" y="363.174327"/>
     <use style="fill:#0a26b2;stroke:#0a26b2;stroke-width:0.75;" x="524.696104" xlink:href="#m09bd60fd62" y="363.174281"/>
     <use style="fill:#0a26b2;stroke:#0a26b2;stroke-width:0.75;" x="532.425974" xlink:href="#m09bd60fd62" y="363.17414"/>
     <use style="fill:#0a26b2;stroke:#0a26b2;stroke-width:0.75;" x="540.155844" xlink:href="#m09bd60fd62" y="363.174022"/>
     <use style="fill:#0a26b2;stroke:#0a26b2;stroke-width:0.75;" x="547.885714" xlink:href="#m09bd60fd62" y="363.173957"/>
     <use style="fill:#0a26b2;stroke:#0a26b2;stroke-width:0.75;" x="555.615584" xlink:href="#m09bd60fd62" y="363.173576"/>
     <use style="fill:#0a26b2;stroke:#0a26b2;stroke-width:0.75;" x="563.345455" xlink:href="#m09bd60fd62" y="363.17325"/>
     <use style="fill:#0a26b2;stroke:#0a26b2;stroke-width:0.75;" x="571.075325" xlink:href="#m09bd60fd62" y="363.172864"/>
     <use style="fill:#0a26b2;stroke:#0a26b2;stroke-width:0.75;" x="578.805195" xlink:href="#m09bd60fd62" y="363.172342"/>
     <use style="fill:#0a26b2;stroke:#0a26b2;stroke-width:0.75;" x="586.535065" xlink:href="#m09bd60fd62" y="363.171787"/>
     <use style="fill:#0a26b2;stroke:#0a26b2;stroke-width:0.75;" x="594.264935" xlink:href="#m09bd60fd62" y="363.171006"/>
     <use style="fill:#0a26b2;stroke:#0a26b2;stroke-width:0.75;" x="601.994805" xlink:href="#m09bd60fd62" y="363.16986"/>
     <use style="fill:#0a26b2;stroke:#0a26b2;stroke-width:0.75;" x="609.724675" xlink:href="#m09bd60fd62" y="363.16805"/>
     <use style="fill:#0a26b2;stroke:#0a26b2;stroke-width:0.75;" x="617.454545" xlink:href="#m09bd60fd62" y="363.166672"/>
     <use style="fill:#0a26b2;stroke:#0a26b2;stroke-width:0.75;" x="625.184416" xlink:href="#m09bd60fd62" y="363.160638"/>
     <use style="fill:#0a26b2;stroke:#0a26b2;stroke-width:0.75;" x="632.914286" xlink:href="#m09bd60fd62" y="363.155047"/>
     <use style="fill:#0a26b2;stroke:#0a26b2;stroke-width:0.75;" x="640.644156" xlink:href="#m09bd60fd62" y="363.148645"/>
     <use style="fill:#0a26b2;stroke:#0a26b2;stroke-width:0.75;" x="648.374026" xlink:href="#m09bd60fd62" y="363.140879"/>
     <use style="fill:#0a26b2;stroke:#0a26b2;stroke-width:0.75;" x="656.103896" xlink:href="#m09bd60fd62" y="363.130188"/>
     <use style="fill:#0a26b2;stroke:#0a26b2;stroke-width:0.75;" x="663.833766" xlink:href="#m09bd60fd62" y="363.120178"/>
     <use style="fill:#0a26b2;stroke:#0a26b2;stroke-width:0.75;" x="671.563636" xlink:href="#m09bd60fd62" y="363.107995"/>
     <use style="fill:#0a26b2;stroke:#0a26b2;stroke-width:0.75;" x="679.293506" xlink:href="#m09bd60fd62" y="363.089724"/>
     <use style="fill:#0a26b2;stroke:#0a26b2;stroke-width:0.75;" x="687.023377" xlink:href="#m09bd60fd62" y="363.071694"/>
     <use style="fill:#0a26b2;stroke:#0a26b2;stroke-width:0.75;" x="694.753247" xlink:href="#m09bd60fd62" y="363.051653"/>
     <use style="fill:#0a26b2;stroke:#0a26b2;stroke-width:0.75;" x="702.483117" xlink:href="#m09bd60fd62" y="363.03198"/>
     <use style="fill:#0a26b2;stroke:#0a26b2;stroke-width:0.75;" x="710.212987" xlink:href="#m09bd60fd62" y="363.010812"/>
     <use style="fill:#0a26b2;stroke:#0a26b2;stroke-width:0.75;" x="717.942857" xlink:href="#m09bd60fd62" y="362.984161"/>
     <use style="fill:#0a26b2;stroke:#0a26b2;stroke-width:0.75;" x="725.672727" xlink:href="#m09bd60fd62" y="362.958796"/>
     <use style="fill:#0a26b2;stroke:#0a26b2;stroke-width:0.75;" x="733.402597" xlink:href="#m09bd60fd62" y="362.928059"/>
     <use style="fill:#0a26b2;stroke:#0a26b2;stroke-width:0.75;" x="741.132468" xlink:href="#m09bd60fd62" y="362.895941"/>
     <use style="fill:#0a26b2;stroke:#0a26b2;stroke-width:0.75;" x="748.862338" xlink:href="#m09bd60fd62" y="362.862266"/>
     <use style="fill:#0a26b2;stroke:#0a26b2;stroke-width:0.75;" x="756.592208" xlink:href="#m09bd60fd62" y="362.833783"/>
     <use style="fill:#0a26b2;stroke:#0a26b2;stroke-width:0.75;" x="764.322078" xlink:href="#m09bd60fd62" y="362.803921"/>
     <use style="fill:#0a26b2;stroke:#0a26b2;stroke-width:0.75;" x="772.051948" xlink:href="#m09bd60fd62" y="362.772754"/>
     <use style="fill:#0a26b2;stroke:#0a26b2;stroke-width:0.75;" x="779.781818" xlink:href="#m09bd60fd62" y="362.74085"/>
     <use style="fill:#0a26b2;stroke:#0a26b2;stroke-width:0.75;" x="787.511688" xlink:href="#m09bd60fd62" y="362.706323"/>
     <use style="fill:#0a26b2;stroke:#0a26b2;stroke-width:0.75;" x="795.241558" xlink:href="#m09bd60fd62" y="362.672171"/>
     <use style="fill:#0a26b2;stroke:#0a26b2;stroke-width:0.75;" x="802.971429" xlink:href="#m09bd60fd62" y="362.641959"/>
     <use style="fill:#0a26b2;stroke:#0a26b2;stroke-width:0.75;" x="810.701299" xlink:href="#m09bd60fd62" y="362.612702"/>
     <use style="fill:#0a26b2;stroke:#0a26b2;stroke-width:0.75;" x="818.431169" xlink:href="#m09bd60fd62" y="362.587098"/>
     <use style="fill:#0a26b2;stroke:#0a26b2;stroke-width:0.75;" x="826.161039" xlink:href="#m09bd60fd62" y="362.559729"/>
     <use style="fill:#0a26b2;stroke:#0a26b2;stroke-width:0.75;" x="833.890909" xlink:href="#m09bd60fd62" y="362.530712"/>
     <use style="fill:#0a26b2;stroke:#0a26b2;stroke-width:0.75;" x="841.620779" xlink:href="#m09bd60fd62" y="362.499102"/>
     <use style="fill:#0a26b2;stroke:#0a26b2;stroke-width:0.75;" x="849.350649" xlink:href="#m09bd60fd62" y="362.46661"/>
     <use style="fill:#0a26b2;stroke:#0a26b2;stroke-width:0.75;" x="857.080519" xlink:href="#m09bd60fd62" y="362.433737"/>
     <use style="fill:#0a26b2;stroke:#0a26b2;stroke-width:0.75;" x="864.81039" xlink:href="#m09bd60fd62" y="362.406812"/>
     <use style="fill:#0a26b2;stroke:#0a26b2;stroke-width:0.75;" x="872.54026" xlink:href="#m09bd60fd62" y="362.380995"/>
     <use style="fill:#0a26b2;stroke:#0a26b2;stroke-width:0.75;" x="880.27013" xlink:href="#m09bd60fd62" y="362.352959"/>
     <use style="fill:#0a26b2;stroke:#0a26b2;stroke-width:0.75;" x="888" xlink:href="#m09bd60fd62" y="362.324995"/>
    </g>
   </g>
   <g id="line2d_15">
    <path clip-path="url(#pc5f004d6b9)" d="M 416.477922 363.174531 
L 424.207792 363.174531 
L 431.937662 363.174531 
L 439.667532 363.174495 
L 447.397403 363.174495 
L 455.127273 363.174489 
L 462.857143 363.174488 
L 470.587013 363.174486 
L 478.316883 363.174478 
L 486.046753 363.174472 
L 493.776623 363.174447 
L 501.506494 363.174427 
L 509.236364 363.174396 
L 516.966234 363.174327 
L 524.696104 363.174281 
L 532.425974 363.17414 
L 540.155844 363.174022 
L 547.885714 363.173957 
L 555.615584 363.173576 
L 563.345455 363.17325 
L 571.075325 363.172864 
L 578.805195 363.172342 
L 586.535065 363.171787 
L 594.264935 363.171006 
L 601.994805 363.16986 
L 609.724675 363.16805 
L 617.454545 363.166672 
L 625.184416 363.160638 
L 632.914286 363.155047 
L 640.644156 363.148645 
L 648.374026 363.140879 
L 656.103896 363.130188 
L 663.833766 363.120178 
L 671.563636 363.107995 
L 679.293506 363.089724 
L 687.023377 363.071694 
L 694.753247 363.051653 
L 702.483117 363.03198 
L 710.212987 363.010812 
L 717.942857 362.984161 
L 725.672727 362.958796 
L 733.402597 362.928059 
L 741.132468 362.895941 
L 748.862338 362.862266 
L 756.592208 362.833783 
L 764.322078 362.803921 
L 772.051948 362.772754 
L 779.781818 362.74085 
L 787.511688 362.706323 
L 795.241558 362.672171 
L 802.971429 362.641959 
L 810.701299 362.612702 
L 818.431169 362.587098 
L 826.161039 362.559729 
L 833.890909 362.530712 
" style="fill:none;stroke:#3498db;stroke-linecap:round;"/>
    <defs>
     <path d="M 0 4 
C 1.060812 4 2.078319 3.578535 2.828427 2.828427 
C 3.578535 2.078319 4 1.060812 4 0 
C 4 -1.060812 3.578535 -2.078319 2.828427 -2.828427 
C 2.078319 -3.578535 1.060812 -4 0 -4 
C -1.060812 -4 -2.078319 -3.578535 -2.828427 -2.828427 
C -3.578535 -2.078319 -4 -1.060812 -4 0 
C -4 1.060812 -3.578535 2.078319 -2.828427 2.828427 
C -2.078319 3.578535 -1.060812 4 0 4 
z
" id="m47aadcfc7d" style="stroke:#3498db;stroke-width:0.75;"/>
    </defs>
    <g clip-path="url(#pc5f004d6b9)">
     <use style="fill:#3498db;stroke:#3498db;stroke-width:0.75;" x="416.477922" xlink:href="#m47aadcfc7d" y="363.174531"/>
     <use style="fill:#3498db;stroke:#3498db;stroke-width:0.75;" x="424.207792" xlink:href="#m47aadcfc7d" y="363.174531"/>
     <use style="fill:#3498db;stroke:#3498db;stroke-width:0.75;" x="431.937662" xlink:href="#m47aadcfc7d" y="363.174531"/>
     <use style="fill:#3498db;stroke:#3498db;stroke-width:0.75;" x="439.667532" xlink:href="#m47aadcfc7d" y="363.174495"/>
     <use style="fill:#3498db;stroke:#3498db;stroke-width:0.75;" x="447.397403" xlink:href="#m47aadcfc7d" y="363.174495"/>
     <use style="fill:#3498db;stroke:#3498db;stroke-width:0.75;" x="455.127273" xlink:href="#m47aadcfc7d" y="363.174489"/>
     <use style="fill:#3498db;stroke:#3498db;stroke-width:0.75;" x="462.857143" xlink:href="#m47aadcfc7d" y="363.174488"/>
     <use style="fill:#3498db;stroke:#3498db;stroke-width:0.75;" x="470.587013" xlink:href="#m47aadcfc7d" y="363.174486"/>
     <use style="fill:#3498db;stroke:#3498db;stroke-width:0.75;" x="478.316883" xlink:href="#m47aadcfc7d" y="363.174478"/>
     <use style="fill:#3498db;stroke:#3498db;stroke-width:0.75;" x="486.046753" xlink:href="#m47aadcfc7d" y="363.174472"/>
     <use style="fill:#3498db;stroke:#3498db;stroke-width:0.75;" x="493.776623" xlink:href="#m47aadcfc7d" y="363.174447"/>
     <use style="fill:#3498db;stroke:#3498db;stroke-width:0.75;" x="501.506494" xlink:href="#m47aadcfc7d" y="363.174427"/>
     <use style="fill:#3498db;stroke:#3498db;stroke-width:0.75;" x="509.236364" xlink:href="#m47aadcfc7d" y="363.174396"/>
     <use style="fill:#3498db;stroke:#3498db;stroke-width:0.75;" x="516.966234" xlink:href="#m47aadcfc7d" y="363.174327"/>
     <use style="fill:#3498db;stroke:#3498db;stroke-width:0.75;" x="524.696104" xlink:href="#m47aadcfc7d" y="363.174281"/>
     <use style="fill:#3498db;stroke:#3498db;stroke-width:0.75;" x="532.425974" xlink:href="#m47aadcfc7d" y="363.17414"/>
     <use style="fill:#3498db;stroke:#3498db;stroke-width:0.75;" x="540.155844" xlink:href="#m47aadcfc7d" y="363.174022"/>
     <use style="fill:#3498db;stroke:#3498db;stroke-width:0.75;" x="547.885714" xlink:href="#m47aadcfc7d" y="363.173957"/>
     <use style="fill:#3498db;stroke:#3498db;stroke-width:0.75;" x="555.615584" xlink:href="#m47aadcfc7d" y="363.173576"/>
     <use style="fill:#3498db;stroke:#3498db;stroke-width:0.75;" x="563.345455" xlink:href="#m47aadcfc7d" y="363.17325"/>
     <use style="fill:#3498db;stroke:#3498db;stroke-width:0.75;" x="571.075325" xlink:href="#m47aadcfc7d" y="363.172864"/>
     <use style="fill:#3498db;stroke:#3498db;stroke-width:0.75;" x="578.805195" xlink:href="#m47aadcfc7d" y="363.172342"/>
     <use style="fill:#3498db;stroke:#3498db;stroke-width:0.75;" x="586.535065" xlink:href="#m47aadcfc7d" y="363.171787"/>
     <use style="fill:#3498db;stroke:#3498db;stroke-width:0.75;" x="594.264935" xlink:href="#m47aadcfc7d" y="363.171006"/>
     <use style="fill:#3498db;stroke:#3498db;stroke-width:0.75;" x="601.994805" xlink:href="#m47aadcfc7d" y="363.16986"/>
     <use style="fill:#3498db;stroke:#3498db;stroke-width:0.75;" x="609.724675" xlink:href="#m47aadcfc7d" y="363.16805"/>
     <use style="fill:#3498db;stroke:#3498db;stroke-width:0.75;" x="617.454545" xlink:href="#m47aadcfc7d" y="363.166672"/>
     <use style="fill:#3498db;stroke:#3498db;stroke-width:0.75;" x="625.184416" xlink:href="#m47aadcfc7d" y="363.160638"/>
     <use style="fill:#3498db;stroke:#3498db;stroke-width:0.75;" x="632.914286" xlink:href="#m47aadcfc7d" y="363.155047"/>
     <use style="fill:#3498db;stroke:#3498db;stroke-width:0.75;" x="640.644156" xlink:href="#m47aadcfc7d" y="363.148645"/>
     <use style="fill:#3498db;stroke:#3498db;stroke-width:0.75;" x="648.374026" xlink:href="#m47aadcfc7d" y="363.140879"/>
     <use style="fill:#3498db;stroke:#3498db;stroke-width:0.75;" x="656.103896" xlink:href="#m47aadcfc7d" y="363.130188"/>
     <use style="fill:#3498db;stroke:#3498db;stroke-width:0.75;" x="663.833766" xlink:href="#m47aadcfc7d" y="363.120178"/>
     <use style="fill:#3498db;stroke:#3498db;stroke-width:0.75;" x="671.563636" xlink:href="#m47aadcfc7d" y="363.107995"/>
     <use style="fill:#3498db;stroke:#3498db;stroke-width:0.75;" x="679.293506" xlink:href="#m47aadcfc7d" y="363.089724"/>
     <use style="fill:#3498db;stroke:#3498db;stroke-width:0.75;" x="687.023377" xlink:href="#m47aadcfc7d" y="363.071694"/>
     <use style="fill:#3498db;stroke:#3498db;stroke-width:0.75;" x="694.753247" xlink:href="#m47aadcfc7d" y="363.051653"/>
     <use style="fill:#3498db;stroke:#3498db;stroke-width:0.75;" x="702.483117" xlink:href="#m47aadcfc7d" y="363.03198"/>
     <use style="fill:#3498db;stroke:#3498db;stroke-width:0.75;" x="710.212987" xlink:href="#m47aadcfc7d" y="363.010812"/>
     <use style="fill:#3498db;stroke:#3498db;stroke-width:0.75;" x="717.942857" xlink:href="#m47aadcfc7d" y="362.984161"/>
     <use style="fill:#3498db;stroke:#3498db;stroke-width:0.75;" x="725.672727" xlink:href="#m47aadcfc7d" y="362.958796"/>
     <use style="fill:#3498db;stroke:#3498db;stroke-width:0.75;" x="733.402597" xlink:href="#m47aadcfc7d" y="362.928059"/>
     <use style="fill:#3498db;stroke:#3498db;stroke-width:0.75;" x="741.132468" xlink:href="#m47aadcfc7d" y="362.895941"/>
     <use style="fill:#3498db;stroke:#3498db;stroke-width:0.75;" x="748.862338" xlink:href="#m47aadcfc7d" y="362.862266"/>
     <use style="fill:#3498db;stroke:#3498db;stroke-width:0.75;" x="756.592208" xlink:href="#m47aadcfc7d" y="362.833783"/>
     <use style="fill:#3498db;stroke:#3498db;stroke-width:0.75;" x="764.322078" xlink:href="#m47aadcfc7d" y="362.803921"/>
     <use style="fill:#3498db;stroke:#3498db;stroke-width:0.75;" x="772.051948" xlink:href="#m47aadcfc7d" y="362.772754"/>
     <use style="fill:#3498db;stroke:#3498db;stroke-width:0.75;" x="779.781818" xlink:href="#m47aadcfc7d" y="362.74085"/>
     <use style="fill:#3498db;stroke:#3498db;stroke-width:0.75;" x="787.511688" xlink:href="#m47aadcfc7d" y="362.706323"/>
     <use style="fill:#3498db;stroke:#3498db;stroke-width:0.75;" x="795.241558" xlink:href="#m47aadcfc7d" y="362.672171"/>
     <use style="fill:#3498db;stroke:#3498db;stroke-width:0.75;" x="802.971429" xlink:href="#m47aadcfc7d" y="362.641959"/>
     <use style="fill:#3498db;stroke:#3498db;stroke-width:0.75;" x="810.701299" xlink:href="#m47aadcfc7d" y="362.612702"/>
     <use style="fill:#3498db;stroke:#3498db;stroke-width:0.75;" x="818.431169" xlink:href="#m47aadcfc7d" y="362.587098"/>
     <use style="fill:#3498db;stroke:#3498db;stroke-width:0.75;" x="826.161039" xlink:href="#m47aadcfc7d" y="362.559729"/>
     <use style="fill:#3498db;stroke:#3498db;stroke-width:0.75;" x="833.890909" xlink:href="#m47aadcfc7d" y="362.530712"/>
    </g>
   </g>
   <g id="line2d_16">
    <path clip-path="url(#pc5f004d6b9)" d="M 841.620779 362.499102 
L 849.350649 362.46661 
L 857.080519 362.433737 
L 864.81039 362.406812 
L 872.54026 362.380995 
L 880.27013 362.352959 
L 888 362.324995 
" style="fill:none;stroke:#e67e22;stroke-linecap:round;"/>
    <defs>
     <path d="M 0 4 
C 1.060812 4 2.078319 3.578535 2.828427 2.828427 
C 3.578535 2.078319 4 1.060812 4 0 
C 4 -1.060812 3.578535 -2.078319 2.828427 -2.828427 
C 2.078319 -3.578535 1.060812 -4 0 -4 
C -1.060812 -4 -2.078319 -3.578535 -2.828427 -2.828427 
C -3.578535 -2.078319 -4 -1.060812 -4 0 
C -4 1.060812 -3.578535 2.078319 -2.828427 2.828427 
C -2.078319 3.578535 -1.060812 4 0 4 
z
" id="m1fb3921c04" style="stroke:#e67e22;stroke-width:0.75;"/>
    </defs>
    <g clip-path="url(#pc5f004d6b9)">
     <use style="fill:#e67e22;stroke:#e67e22;stroke-width:0.75;" x="841.620779" xlink:href="#m1fb3921c04" y="362.499102"/>
     <use style="fill:#e67e22;stroke:#e67e22;stroke-width:0.75;" x="849.350649" xlink:href="#m1fb3921c04" y="362.46661"/>
     <use style="fill:#e67e22;stroke:#e67e22;stroke-width:0.75;" x="857.080519" xlink:href="#m1fb3921c04" y="362.433737"/>
     <use style="fill:#e67e22;stroke:#e67e22;stroke-width:0.75;" x="864.81039" xlink:href="#m1fb3921c04" y="362.406812"/>
     <use style="fill:#e67e22;stroke:#e67e22;stroke-width:0.75;" x="872.54026" xlink:href="#m1fb3921c04" y="362.380995"/>
     <use style="fill:#e67e22;stroke:#e67e22;stroke-width:0.75;" x="880.27013" xlink:href="#m1fb3921c04" y="362.352959"/>
     <use style="fill:#e67e22;stroke:#e67e22;stroke-width:0.75;" x="888" xlink:href="#m1fb3921c04" y="362.324995"/>
    </g>
   </g>
   <g id="line2d_17">
    <path clip-path="url(#pc5f004d6b9)" d="M 841.620779 359.603201 
L 849.350649 358.720116 
L 857.080519 357.618671 
L 864.81039 356.244873 
L 872.54026 354.531376 
L 880.27013 352.394183 
L 888 349.728528 
" style="fill:none;stroke:#f1c40f;stroke-linecap:round;"/>
    <defs>
     <path d="M 0 4 
C 1.060812 4 2.078319 3.578535 2.828427 2.828427 
C 3.578535 2.078319 4 1.060812 4 0 
C 4 -1.060812 3.578535 -2.078319 2.828427 -2.828427 
C 2.078319 -3.578535 1.060812 -4 0 -4 
C -1.060812 -4 -2.078319 -3.578535 -2.828427 -2.828427 
C -3.578535 -2.078319 -4 -1.060812 -4 0 
C -4 1.060812 -3.578535 2.078319 -2.828427 2.828427 
C -2.078319 3.578535 -1.060812 4 0 4 
z
" id="m6ad5e0fcc3" style="stroke:#f1c40f;stroke-width:0.75;"/>
    </defs>
    <g clip-path="url(#pc5f004d6b9)">
     <use style="fill:#f1c40f;stroke:#f1c40f;stroke-width:0.75;" x="841.620779" xlink:href="#m6ad5e0fcc3" y="359.603201"/>
     <use style="fill:#f1c40f;stroke:#f1c40f;stroke-width:0.75;" x="849.350649" xlink:href="#m6ad5e0fcc3" y="358.720116"/>
     <use style="fill:#f1c40f;stroke:#f1c40f;stroke-width:0.75;" x="857.080519" xlink:href="#m6ad5e0fcc3" y="357.618671"/>
     <use style="fill:#f1c40f;stroke:#f1c40f;stroke-width:0.75;" x="864.81039" xlink:href="#m6ad5e0fcc3" y="356.244873"/>
     <use style="fill:#f1c40f;stroke:#f1c40f;stroke-width:0.75;" x="872.54026" xlink:href="#m6ad5e0fcc3" y="354.531376"/>
     <use style="fill:#f1c40f;stroke:#f1c40f;stroke-width:0.75;" x="880.27013" xlink:href="#m6ad5e0fcc3" y="352.394183"/>
     <use style="fill:#f1c40f;stroke:#f1c40f;stroke-width:0.75;" x="888" xlink:href="#m6ad5e0fcc3" y="349.728528"/>
    </g>
   </g>
   <g id="line2d_18">
    <path clip-path="url(#pc5f004d6b9)" d="M 895.72987 346.403737 
L 903.45974 342.256827 
L 911.18961 337.084513 
L 918.919481 330.633243 
L 926.649351 322.586771 
L 934.379221 312.550652 
L 942.109091 300.032906 
L 949.838961 284.419903 
L 957.568831 264.946281 
L 965.298701 240.657425 
L 973.028571 210.362676 
L 980.758442 172.576959 
L 988.488312 125.447986 
L 996.218182 66.665455 
" style="fill:none;stroke:#2ecc71;stroke-linecap:round;"/>
    <defs>
     <path d="M 0 4 
C 1.060812 4 2.078319 3.578535 2.828427 2.828427 
C 3.578535 2.078319 4 1.060812 4 0 
C 4 -1.060812 3.578535 -2.078319 2.828427 -2.828427 
C 2.078319 -3.578535 1.060812 -4 0 -4 
C -1.060812 -4 -2.078319 -3.578535 -2.828427 -2.828427 
C -3.578535 -2.078319 -4 -1.060812 -4 0 
C -4 1.060812 -3.578535 2.078319 -2.828427 2.828427 
C -2.078319 3.578535 -1.060812 4 0 4 
z
" id="m60c9b91e12" style="stroke:#2ecc71;stroke-width:0.75;"/>
    </defs>
    <g clip-path="url(#pc5f004d6b9)">
     <use style="fill:#2ecc71;stroke:#2ecc71;stroke-width:0.75;" x="895.72987" xlink:href="#m60c9b91e12" y="346.403737"/>
     <use style="fill:#2ecc71;stroke:#2ecc71;stroke-width:0.75;" x="903.45974" xlink:href="#m60c9b91e12" y="342.256827"/>
     <use style="fill:#2ecc71;stroke:#2ecc71;stroke-width:0.75;" x="911.18961" xlink:href="#m60c9b91e12" y="337.084513"/>
     <use style="fill:#2ecc71;stroke:#2ecc71;stroke-width:0.75;" x="918.919481" xlink:href="#m60c9b91e12" y="330.633243"/>
     <use style="fill:#2ecc71;stroke:#2ecc71;stroke-width:0.75;" x="926.649351" xlink:href="#m60c9b91e12" y="322.586771"/>
     <use style="fill:#2ecc71;stroke:#2ecc71;stroke-width:0.75;" x="934.379221" xlink:href="#m60c9b91e12" y="312.550652"/>
     <use style="fill:#2ecc71;stroke:#2ecc71;stroke-width:0.75;" x="942.109091" xlink:href="#m60c9b91e12" y="300.032906"/>
     <use style="fill:#2ecc71;stroke:#2ecc71;stroke-width:0.75;" x="949.838961" xlink:href="#m60c9b91e12" y="284.419903"/>
     <use style="fill:#2ecc71;stroke:#2ecc71;stroke-width:0.75;" x="957.568831" xlink:href="#m60c9b91e12" y="264.946281"/>
     <use style="fill:#2ecc71;stroke:#2ecc71;stroke-width:0.75;" x="965.298701" xlink:href="#m60c9b91e12" y="240.657425"/>
     <use style="fill:#2ecc71;stroke:#2ecc71;stroke-width:0.75;" x="973.028571" xlink:href="#m60c9b91e12" y="210.362676"/>
     <use style="fill:#2ecc71;stroke:#2ecc71;stroke-width:0.75;" x="980.758442" xlink:href="#m60c9b91e12" y="172.576959"/>
     <use style="fill:#2ecc71;stroke:#2ecc71;stroke-width:0.75;" x="988.488312" xlink:href="#m60c9b91e12" y="125.447986"/>
     <use style="fill:#2ecc71;stroke:#2ecc71;stroke-width:0.75;" x="996.218182" xlink:href="#m60c9b91e12" y="66.665455"/>
    </g>
   </g>
   <g id="patch_3">
    <path d="M 144 378 
L 144 51.84 
" style="fill:none;stroke:#ffffff;stroke-linecap:square;stroke-linejoin:miter;stroke-width:1.875;"/>
   </g>
   <g id="patch_4">
    <path d="M 1036.8 378 
L 1036.8 51.84 
" style="fill:none;stroke:#ffffff;stroke-linecap:square;stroke-linejoin:miter;stroke-width:1.875;"/>
   </g>
   <g id="patch_5">
    <path d="M 144 378 
L 1036.8 378 
" style="fill:none;stroke:#ffffff;stroke-linecap:square;stroke-linejoin:miter;stroke-width:1.875;"/>
   </g>
   <g id="patch_6">
    <path d="M 144 51.84 
L 1036.8 51.84 
" style="fill:none;stroke:#ffffff;stroke-linecap:square;stroke-linejoin:miter;stroke-width:1.875;"/>
   </g>
   <g id="legend_1">
    <g id="patch_7">
     <path d="M 155.55 181.738828 
L 338.591719 181.738828 
Q 341.891719 181.738828 341.891719 178.438828 
L 341.891719 63.39 
Q 341.891719 60.09 338.591719 60.09 
L 155.55 60.09 
Q 152.25 60.09 152.25 63.39 
L 152.25 178.438828 
Q 152.25 181.738828 155.55 181.738828 
z
" style="fill:#eaeaf2;opacity:0.8;stroke:#cccccc;stroke-linejoin:miter;stroke-width:1.5;"/>
    </g>
    <g id="line2d_19">
     <path d="M 158.85 72.725391 
L 191.85 72.725391 
" style="fill:none;stroke:#0a26b2;stroke-linecap:round;"/>
    </g>
    <g id="line2d_20">
     <g>
      <use style="fill:#0a26b2;stroke:#0a26b2;stroke-width:0.75;" x="175.35" xlink:href="#m09bd60fd62" y="72.725391"/>
     </g>
    </g>
    <g id="text_17">
     <!-- Unused train data -->
     <defs>
      <path d="M 54.6875 71.578125 
L 64.15625 71.578125 
L 64.15625 30.21875 
Q 64.15625 19.4375 61.71875 13.078125 
Q 59.28125 6.734375 52.90625 2.75 
Q 46.53125 -1.21875 36.1875 -1.21875 
Q 26.125 -1.21875 19.71875 2.25 
Q 13.328125 5.71875 10.59375 12.28125 
Q 7.859375 18.84375 7.859375 30.21875 
L 7.859375 71.578125 
L 17.328125 71.578125 
L 17.328125 30.28125 
Q 17.328125 20.953125 19.0625 16.53125 
Q 20.796875 12.109375 25.015625 9.71875 
Q 29.25 7.328125 35.359375 7.328125 
Q 45.796875 7.328125 50.234375 12.0625 
Q 54.6875 16.796875 54.6875 30.28125 
z
" id="ArialMT-85"/>
      <path d="M 40.578125 0 
L 40.578125 7.625 
Q 34.515625 -1.171875 24.125 -1.171875 
Q 19.53125 -1.171875 15.546875 0.578125 
Q 11.578125 2.34375 9.640625 5 
Q 7.71875 7.671875 6.9375 11.53125 
Q 6.390625 14.109375 6.390625 19.734375 
L 6.390625 51.859375 
L 15.1875 51.859375 
L 15.1875 23.09375 
Q 15.1875 16.21875 15.71875 13.8125 
Q 16.546875 10.359375 19.234375 8.375 
Q 21.921875 6.390625 25.875 6.390625 
Q 29.828125 6.390625 33.296875 8.421875 
Q 36.765625 10.453125 38.203125 13.9375 
Q 39.65625 17.4375 39.65625 24.078125 
L 39.65625 51.859375 
L 48.4375 51.859375 
L 48.4375 0 
z
" id="ArialMT-117"/>
      <path d="M 25.78125 7.859375 
L 27.046875 0.09375 
Q 23.34375 -0.6875 20.40625 -0.6875 
Q 15.625 -0.6875 12.984375 0.828125 
Q 10.359375 2.34375 9.28125 4.8125 
Q 8.203125 7.28125 8.203125 15.1875 
L 8.203125 45.015625 
L 1.765625 45.015625 
L 1.765625 51.859375 
L 8.203125 51.859375 
L 8.203125 64.703125 
L 16.9375 69.96875 
L 16.9375 51.859375 
L 25.78125 51.859375 
L 25.78125 45.015625 
L 16.9375 45.015625 
L 16.9375 14.703125 
Q 16.9375 10.9375 17.40625 9.859375 
Q 17.875 8.796875 18.921875 8.15625 
Q 19.96875 7.515625 21.921875 7.515625 
Q 23.390625 7.515625 25.78125 7.859375 
z
" id="ArialMT-116"/>
     </defs>
     <g style="fill:#262626;" transform="translate(205.05 78.500391)scale(0.165 -0.165)">
      <use xlink:href="#ArialMT-85"/>
      <use x="72.216797" xlink:href="#ArialMT-110"/>
      <use x="127.832031" xlink:href="#ArialMT-117"/>
      <use x="183.447266" xlink:href="#ArialMT-115"/>
      <use x="233.447266" xlink:href="#ArialMT-101"/>
      <use x="289.0625" xlink:href="#ArialMT-100"/>
      <use x="344.677734" xlink:href="#ArialMT-32"/>
      <use x="372.460938" xlink:href="#ArialMT-116"/>
      <use x="400.244141" xlink:href="#ArialMT-114"/>
      <use x="433.544922" xlink:href="#ArialMT-97"/>
      <use x="489.160156" xlink:href="#ArialMT-105"/>
      <use x="511.376953" xlink:href="#ArialMT-110"/>
      <use x="566.992188" xlink:href="#ArialMT-32"/>
      <use x="594.775391" xlink:href="#ArialMT-100"/>
      <use x="650.390625" xlink:href="#ArialMT-97"/>
      <use x="706.005859" xlink:href="#ArialMT-116"/>
      <use x="733.789062" xlink:href="#ArialMT-97"/>
     </g>
    </g>
    <g id="line2d_21">
     <path d="M 158.85 96.065156 
L 191.85 96.065156 
" style="fill:none;stroke:#3498db;stroke-linecap:round;"/>
    </g>
    <g id="line2d_22">
     <g>
      <use style="fill:#3498db;stroke:#3498db;stroke-width:0.75;" x="175.35" xlink:href="#m47aadcfc7d" y="96.065156"/>
     </g>
    </g>
    <g id="text_18">
     <!-- Train data -->
     <defs>
      <path d="M 25.921875 0 
L 25.921875 63.140625 
L 2.34375 63.140625 
L 2.34375 71.578125 
L 59.078125 71.578125 
L 59.078125 63.140625 
L 35.40625 63.140625 
L 35.40625 0 
z
" id="ArialMT-84"/>
     </defs>
     <g style="fill:#262626;" transform="translate(205.05 101.840156)scale(0.165 -0.165)">
      <use xlink:href="#ArialMT-84"/>
      <use x="57.333984" xlink:href="#ArialMT-114"/>
      <use x="90.634766" xlink:href="#ArialMT-97"/>
      <use x="146.25" xlink:href="#ArialMT-105"/>
      <use x="168.466797" xlink:href="#ArialMT-110"/>
      <use x="224.082031" xlink:href="#ArialMT-32"/>
      <use x="251.865234" xlink:href="#ArialMT-100"/>
      <use x="307.480469" xlink:href="#ArialMT-97"/>
      <use x="363.095703" xlink:href="#ArialMT-116"/>
      <use x="390.878906" xlink:href="#ArialMT-97"/>
     </g>
    </g>
    <g id="line2d_23">
     <path d="M 158.85 119.404922 
L 191.85 119.404922 
" style="fill:none;stroke:#e67e22;stroke-linecap:round;"/>
    </g>
    <g id="line2d_24">
     <g>
      <use style="fill:#e67e22;stroke:#e67e22;stroke-width:0.75;" x="175.35" xlink:href="#m1fb3921c04" y="119.404922"/>
     </g>
    </g>
    <g id="text_19">
     <!-- Test data -->
     <g style="fill:#262626;" transform="translate(205.05 125.179922)scale(0.165 -0.165)">
      <use xlink:href="#ArialMT-84"/>
      <use x="49.958984" xlink:href="#ArialMT-101"/>
      <use x="105.574219" xlink:href="#ArialMT-115"/>
      <use x="155.574219" xlink:href="#ArialMT-116"/>
      <use x="183.357422" xlink:href="#ArialMT-32"/>
      <use x="211.140625" xlink:href="#ArialMT-100"/>
      <use x="266.755859" xlink:href="#ArialMT-97"/>
      <use x="322.371094" xlink:href="#ArialMT-116"/>
      <use x="350.154297" xlink:href="#ArialMT-97"/>
     </g>
    </g>
    <g id="line2d_25">
     <path d="M 158.85 142.744687 
L 191.85 142.744687 
" style="fill:none;stroke:#f1c40f;stroke-linecap:round;"/>
    </g>
    <g id="line2d_26">
     <g>
      <use style="fill:#f1c40f;stroke:#f1c40f;stroke-width:0.75;" x="175.35" xlink:href="#m6ad5e0fcc3" y="142.744687"/>
     </g>
    </g>
    <g id="text_20">
     <!-- Predictions -->
     <defs>
      <path d="M 7.71875 0 
L 7.71875 71.578125 
L 34.71875 71.578125 
Q 41.84375 71.578125 45.609375 70.90625 
Q 50.875 70.015625 54.4375 67.546875 
Q 58.015625 65.09375 60.1875 60.640625 
Q 62.359375 56.203125 62.359375 50.875 
Q 62.359375 41.75 56.546875 35.421875 
Q 50.734375 29.109375 35.546875 29.109375 
L 17.1875 29.109375 
L 17.1875 0 
z
M 17.1875 37.546875 
L 35.6875 37.546875 
Q 44.875 37.546875 48.734375 40.96875 
Q 52.59375 44.390625 52.59375 50.59375 
Q 52.59375 55.078125 50.3125 58.265625 
Q 48.046875 61.46875 44.34375 62.5 
Q 41.9375 63.140625 35.5 63.140625 
L 17.1875 63.140625 
z
" id="ArialMT-80"/>
     </defs>
     <g style="fill:#262626;" transform="translate(205.05 148.519687)scale(0.165 -0.165)">
      <use xlink:href="#ArialMT-80"/>
      <use x="66.699219" xlink:href="#ArialMT-114"/>
      <use x="100" xlink:href="#ArialMT-101"/>
      <use x="155.615234" xlink:href="#ArialMT-100"/>
      <use x="211.230469" xlink:href="#ArialMT-105"/>
      <use x="233.447266" xlink:href="#ArialMT-99"/>
      <use x="283.447266" xlink:href="#ArialMT-116"/>
      <use x="311.230469" xlink:href="#ArialMT-105"/>
      <use x="333.447266" xlink:href="#ArialMT-111"/>
      <use x="389.0625" xlink:href="#ArialMT-110"/>
      <use x="444.677734" xlink:href="#ArialMT-115"/>
     </g>
    </g>
    <g id="line2d_27">
     <path d="M 158.85 166.084453 
L 191.85 166.084453 
" style="fill:none;stroke:#2ecc71;stroke-linecap:round;"/>
    </g>
    <g id="line2d_28">
     <g>
      <use style="fill:#2ecc71;stroke:#2ecc71;stroke-width:0.75;" x="175.35" xlink:href="#m60c9b91e12" y="166.084453"/>
     </g>
    </g>
    <g id="text_21">
     <!-- Forecast -->
     <defs>
      <path d="M 8.203125 0 
L 8.203125 71.578125 
L 56.5 71.578125 
L 56.5 63.140625 
L 17.671875 63.140625 
L 17.671875 40.96875 
L 51.265625 40.96875 
L 51.265625 32.515625 
L 17.671875 32.515625 
L 17.671875 0 
z
" id="ArialMT-70"/>
     </defs>
     <g style="fill:#262626;" transform="translate(205.05 171.859453)scale(0.165 -0.165)">
      <use xlink:href="#ArialMT-70"/>
      <use x="61.083984" xlink:href="#ArialMT-111"/>
      <use x="116.699219" xlink:href="#ArialMT-114"/>
      <use x="150" xlink:href="#ArialMT-101"/>
      <use x="205.615234" xlink:href="#ArialMT-99"/>
      <use x="255.615234" xlink:href="#ArialMT-97"/>
      <use x="311.230469" xlink:href="#ArialMT-115"/>
      <use x="361.230469" xlink:href="#ArialMT-116"/>
     </g>
    </g>
   </g>
  </g>
  <g id="text_22">
   <!-- COVID-19 confirmed cases and forecasting in US over the time -->
   <defs>
    <path d="M 53.078125 26.3125 
L 67.09375 21.875 
Q 63.875 10.15625 56.375 4.46875 
Q 48.875 -1.21875 37.359375 -1.21875 
Q 23.09375 -1.21875 13.90625 8.515625 
Q 4.734375 18.265625 4.734375 35.15625 
Q 4.734375 53.03125 13.953125 62.90625 
Q 23.1875 72.796875 38.234375 72.796875 
Q 51.375 72.796875 59.578125 65.046875 
Q 64.453125 60.453125 66.890625 51.859375 
L 52.59375 48.4375 
Q 51.3125 54 47.28125 57.21875 
Q 43.265625 60.453125 37.5 60.453125 
Q 29.546875 60.453125 24.578125 54.734375 
Q 19.625 49.03125 19.625 36.234375 
Q 19.625 22.65625 24.5 16.890625 
Q 29.390625 11.140625 37.203125 11.140625 
Q 42.96875 11.140625 47.109375 14.796875 
Q 51.265625 18.453125 53.078125 26.3125 
z
" id="Arial-BoldMT-67"/>
    <path d="M 4.34375 35.359375 
Q 4.34375 46.296875 7.625 53.71875 
Q 10.0625 59.1875 14.28125 63.53125 
Q 18.5 67.875 23.53125 69.96875 
Q 30.21875 72.796875 38.96875 72.796875 
Q 54.78125 72.796875 64.28125 62.984375 
Q 73.78125 53.171875 73.78125 35.6875 
Q 73.78125 18.359375 64.359375 8.5625 
Q 54.9375 -1.21875 39.15625 -1.21875 
Q 23.1875 -1.21875 13.765625 8.515625 
Q 4.34375 18.265625 4.34375 35.359375 
z
M 19.234375 35.84375 
Q 19.234375 23.6875 24.84375 17.40625 
Q 30.46875 11.140625 39.109375 11.140625 
Q 47.75 11.140625 53.296875 17.359375 
Q 58.84375 23.578125 58.84375 36.03125 
Q 58.84375 48.34375 53.4375 54.390625 
Q 48.046875 60.453125 39.109375 60.453125 
Q 30.171875 60.453125 24.703125 54.3125 
Q 19.234375 48.1875 19.234375 35.84375 
z
" id="Arial-BoldMT-79"/>
    <path d="M 25.53125 0 
L -0.046875 71.578125 
L 15.625 71.578125 
L 33.734375 18.609375 
L 51.265625 71.578125 
L 66.609375 71.578125 
L 40.96875 0 
z
" id="Arial-BoldMT-86"/>
    <path d="M 6.84375 0 
L 6.84375 71.578125 
L 21.296875 71.578125 
L 21.296875 0 
z
" id="Arial-BoldMT-73"/>
    <path d="M 7.234375 71.578125 
L 33.640625 71.578125 
Q 42.578125 71.578125 47.265625 70.21875 
Q 53.5625 68.359375 58.046875 63.625 
Q 62.546875 58.890625 64.890625 52.03125 
Q 67.234375 45.171875 67.234375 35.109375 
Q 67.234375 26.265625 65.046875 19.875 
Q 62.359375 12.0625 57.375 7.234375 
Q 53.609375 3.5625 47.21875 1.515625 
Q 42.4375 0 34.421875 0 
L 7.234375 0 
z
M 21.6875 59.46875 
L 21.6875 12.0625 
L 32.46875 12.0625 
Q 38.53125 12.0625 41.21875 12.75 
Q 44.734375 13.625 47.046875 15.71875 
Q 49.359375 17.828125 50.828125 22.625 
Q 52.296875 27.4375 52.296875 35.75 
Q 52.296875 44.046875 50.828125 48.484375 
Q 49.359375 52.9375 46.71875 55.421875 
Q 44.09375 57.90625 40.046875 58.796875 
Q 37.015625 59.46875 28.171875 59.46875 
z
" id="Arial-BoldMT-68"/>
    <path d="M 5.609375 19.09375 
L 5.609375 32.8125 
L 32.5625 32.8125 
L 32.5625 19.09375 
z
" id="Arial-BoldMT-45"/>
    <path d="M 39.359375 0 
L 25.640625 0 
L 25.640625 51.703125 
Q 18.109375 44.671875 7.90625 41.3125 
L 7.90625 53.765625 
Q 13.28125 55.515625 19.578125 60.421875 
Q 25.875 65.328125 28.21875 71.875 
L 39.359375 71.875 
z
" id="Arial-BoldMT-49"/>
    <path d="M 4.546875 16.546875 
L 17.828125 18.015625 
Q 18.3125 13.96875 20.359375 12.015625 
Q 22.40625 10.0625 25.78125 10.0625 
Q 30.03125 10.0625 33 13.96875 
Q 35.984375 17.875 36.8125 30.171875 
Q 31.640625 24.171875 23.875 24.171875 
Q 15.4375 24.171875 9.296875 30.6875 
Q 3.171875 37.203125 3.171875 47.65625 
Q 3.171875 58.546875 9.640625 65.203125 
Q 16.109375 71.875 26.125 71.875 
Q 37.015625 71.875 44 63.453125 
Q 50.984375 55.03125 50.984375 35.75 
Q 50.984375 16.109375 43.703125 7.421875 
Q 36.421875 -1.265625 24.75 -1.265625 
Q 16.359375 -1.265625 11.171875 3.203125 
Q 6 7.671875 4.546875 16.546875 
z
M 35.59375 46.53125 
Q 35.59375 53.171875 32.546875 56.828125 
Q 29.5 60.5 25.484375 60.5 
Q 21.6875 60.5 19.171875 57.5 
Q 16.65625 54.5 16.65625 47.65625 
Q 16.65625 40.71875 19.390625 37.46875 
Q 22.125 34.234375 26.21875 34.234375 
Q 30.171875 34.234375 32.875 37.359375 
Q 35.59375 40.484375 35.59375 46.53125 
z
" id="Arial-BoldMT-57"/>
    <path id="Arial-BoldMT-32"/>
    <path d="M 52.390625 36.53125 
L 38.875 34.078125 
Q 38.1875 38.140625 35.765625 40.1875 
Q 33.34375 42.234375 29.5 42.234375 
Q 24.359375 42.234375 21.3125 38.6875 
Q 18.265625 35.15625 18.265625 26.859375 
Q 18.265625 17.625 21.359375 13.8125 
Q 24.46875 10.015625 29.6875 10.015625 
Q 33.59375 10.015625 36.078125 12.234375 
Q 38.578125 14.453125 39.59375 19.875 
L 53.078125 17.578125 
Q 50.984375 8.296875 45.015625 3.5625 
Q 39.0625 -1.171875 29.046875 -1.171875 
Q 17.671875 -1.171875 10.90625 6 
Q 4.15625 13.1875 4.15625 25.875 
Q 4.15625 38.71875 10.9375 45.875 
Q 17.71875 53.03125 29.296875 53.03125 
Q 38.765625 53.03125 44.359375 48.953125 
Q 49.953125 44.875 52.390625 36.53125 
z
" id="Arial-BoldMT-99"/>
    <path d="M 4 26.65625 
Q 4 33.5 7.375 39.890625 
Q 10.75 46.296875 16.921875 49.65625 
Q 23.09375 53.03125 30.71875 53.03125 
Q 42.484375 53.03125 50 45.390625 
Q 57.515625 37.75 57.515625 26.078125 
Q 57.515625 14.3125 49.921875 6.5625 
Q 42.328125 -1.171875 30.8125 -1.171875 
Q 23.6875 -1.171875 17.21875 2.046875 
Q 10.75 5.28125 7.375 11.5 
Q 4 17.71875 4 26.65625 
z
M 18.0625 25.921875 
Q 18.0625 18.21875 21.71875 14.109375 
Q 25.390625 10.015625 30.765625 10.015625 
Q 36.140625 10.015625 39.765625 14.109375 
Q 43.40625 18.21875 43.40625 26.03125 
Q 43.40625 33.640625 39.765625 37.734375 
Q 36.140625 41.84375 30.765625 41.84375 
Q 25.390625 41.84375 21.71875 37.734375 
Q 18.0625 33.640625 18.0625 25.921875 
z
" id="Arial-BoldMT-111"/>
    <path d="M 54.34375 0 
L 40.625 0 
L 40.625 26.46875 
Q 40.625 34.859375 39.75 37.328125 
Q 38.875 39.796875 36.890625 41.15625 
Q 34.90625 42.53125 32.125 42.53125 
Q 28.5625 42.53125 25.734375 40.578125 
Q 22.90625 38.625 21.84375 35.390625 
Q 20.796875 32.171875 20.796875 23.484375 
L 20.796875 0 
L 7.078125 0 
L 7.078125 51.859375 
L 19.828125 51.859375 
L 19.828125 44.234375 
Q 26.609375 53.03125 36.921875 53.03125 
Q 41.453125 53.03125 45.203125 51.390625 
Q 48.96875 49.75 50.890625 47.203125 
Q 52.828125 44.671875 53.578125 41.453125 
Q 54.34375 38.234375 54.34375 32.234375 
z
" id="Arial-BoldMT-110"/>
    <path d="M 1.171875 51.859375 
L 8.796875 51.859375 
L 8.796875 55.765625 
Q 8.796875 62.3125 10.1875 65.53125 
Q 11.578125 68.75 15.3125 70.765625 
Q 19.046875 72.796875 24.75 72.796875 
Q 30.609375 72.796875 36.234375 71.046875 
L 34.375 61.46875 
Q 31.109375 62.25 28.078125 62.25 
Q 25.09375 62.25 23.796875 60.859375 
Q 22.515625 59.46875 22.515625 55.515625 
L 22.515625 51.859375 
L 32.765625 51.859375 
L 32.765625 41.0625 
L 22.515625 41.0625 
L 22.515625 0 
L 8.796875 0 
L 8.796875 41.0625 
L 1.171875 41.0625 
z
" id="Arial-BoldMT-102"/>
    <path d="M 7.171875 58.890625 
L 7.171875 71.578125 
L 20.90625 71.578125 
L 20.90625 58.890625 
z
M 7.171875 0 
L 7.171875 51.859375 
L 20.90625 51.859375 
L 20.90625 0 
z
" id="Arial-BoldMT-105"/>
    <path d="M 20.3125 0 
L 6.59375 0 
L 6.59375 51.859375 
L 19.34375 51.859375 
L 19.34375 44.484375 
Q 22.609375 49.703125 25.21875 51.359375 
Q 27.828125 53.03125 31.15625 53.03125 
Q 35.84375 53.03125 40.1875 50.4375 
L 35.9375 38.484375 
Q 32.46875 40.71875 29.5 40.71875 
Q 26.609375 40.71875 24.609375 39.125 
Q 22.609375 37.546875 21.453125 33.390625 
Q 20.3125 29.25 20.3125 16.015625 
z
" id="Arial-BoldMT-114"/>
    <path d="M 6.15625 51.859375 
L 18.796875 51.859375 
L 18.796875 44.78125 
Q 25.59375 53.03125 34.96875 53.03125 
Q 39.9375 53.03125 43.59375 50.96875 
Q 47.265625 48.921875 49.609375 44.78125 
Q 53.03125 48.921875 56.984375 50.96875 
Q 60.9375 53.03125 65.4375 53.03125 
Q 71.140625 53.03125 75.09375 50.703125 
Q 79.046875 48.390625 81 43.890625 
Q 82.421875 40.578125 82.421875 33.15625 
L 82.421875 0 
L 68.703125 0 
L 68.703125 29.640625 
Q 68.703125 37.359375 67.28125 39.59375 
Q 65.375 42.53125 61.421875 42.53125 
Q 58.546875 42.53125 56 40.765625 
Q 53.46875 39.015625 52.34375 35.625 
Q 51.21875 32.234375 51.21875 24.90625 
L 51.21875 0 
L 37.5 0 
L 37.5 28.421875 
Q 37.5 35.984375 36.765625 38.171875 
Q 36.03125 40.375 34.484375 41.453125 
Q 32.953125 42.53125 30.328125 42.53125 
Q 27.15625 42.53125 24.609375 40.8125 
Q 22.078125 39.109375 20.96875 35.890625 
Q 19.875 32.671875 19.875 25.203125 
L 19.875 0 
L 6.15625 0 
z
" id="Arial-BoldMT-109"/>
    <path d="M 37.203125 16.5 
L 50.875 14.203125 
Q 48.25 6.6875 42.546875 2.75 
Q 36.859375 -1.171875 28.328125 -1.171875 
Q 14.796875 -1.171875 8.296875 7.671875 
Q 3.171875 14.75 3.171875 25.53125 
Q 3.171875 38.421875 9.90625 45.71875 
Q 16.65625 53.03125 26.953125 53.03125 
Q 38.53125 53.03125 45.21875 45.390625 
Q 51.90625 37.75 51.609375 21.96875 
L 17.234375 21.96875 
Q 17.390625 15.875 20.5625 12.46875 
Q 23.734375 9.078125 28.46875 9.078125 
Q 31.6875 9.078125 33.875 10.828125 
Q 36.078125 12.59375 37.203125 16.5 
z
M 37.984375 30.375 
Q 37.84375 36.328125 34.90625 39.421875 
Q 31.984375 42.53125 27.78125 42.53125 
Q 23.296875 42.53125 20.359375 39.265625 
Q 17.4375 35.984375 17.484375 30.375 
z
" id="Arial-BoldMT-101"/>
    <path d="M 54.734375 0 
L 42 0 
L 42 7.625 
Q 38.8125 3.171875 34.484375 1 
Q 30.171875 -1.171875 25.78125 -1.171875 
Q 16.84375 -1.171875 10.46875 6.03125 
Q 4.109375 13.234375 4.109375 26.125 
Q 4.109375 39.3125 10.296875 46.171875 
Q 16.5 53.03125 25.984375 53.03125 
Q 34.671875 53.03125 41.015625 45.796875 
L 41.015625 71.578125 
L 54.734375 71.578125 
z
M 18.109375 27.046875 
Q 18.109375 18.75 20.40625 15.046875 
Q 23.734375 9.671875 29.6875 9.671875 
Q 34.421875 9.671875 37.734375 13.6875 
Q 41.0625 17.71875 41.0625 25.734375 
Q 41.0625 34.671875 37.84375 38.59375 
Q 34.625 42.53125 29.59375 42.53125 
Q 24.703125 42.53125 21.40625 38.640625 
Q 18.109375 34.765625 18.109375 27.046875 
z
" id="Arial-BoldMT-100"/>
    <path d="M 17.4375 36.03125 
L 4.984375 38.28125 
Q 7.078125 45.796875 12.203125 49.40625 
Q 17.328125 53.03125 27.4375 53.03125 
Q 36.625 53.03125 41.109375 50.859375 
Q 45.609375 48.6875 47.4375 45.34375 
Q 49.265625 42 49.265625 33.0625 
L 49.125 17.046875 
Q 49.125 10.203125 49.78125 6.953125 
Q 50.4375 3.71875 52.25 0 
L 38.671875 0 
Q 38.140625 1.375 37.359375 4.046875 
Q 37.015625 5.28125 36.859375 5.671875 
Q 33.34375 2.25 29.34375 0.53125 
Q 25.34375 -1.171875 20.796875 -1.171875 
Q 12.796875 -1.171875 8.171875 3.171875 
Q 3.5625 7.515625 3.5625 14.15625 
Q 3.5625 18.5625 5.65625 22 
Q 7.765625 25.4375 11.546875 27.265625 
Q 15.328125 29.109375 22.46875 30.46875 
Q 32.078125 32.28125 35.796875 33.84375 
L 35.796875 35.203125 
Q 35.796875 39.15625 33.84375 40.84375 
Q 31.890625 42.53125 26.46875 42.53125 
Q 22.796875 42.53125 20.75 41.09375 
Q 18.703125 39.65625 17.4375 36.03125 
z
M 35.796875 24.90625 
Q 33.15625 24.03125 27.4375 22.796875 
Q 21.734375 21.578125 19.96875 20.40625 
Q 17.28125 18.5 17.28125 15.578125 
Q 17.28125 12.703125 19.421875 10.59375 
Q 21.578125 8.5 24.90625 8.5 
Q 28.609375 8.5 31.984375 10.9375 
Q 34.46875 12.796875 35.25 15.484375 
Q 35.796875 17.234375 35.796875 22.171875 
z
" id="Arial-BoldMT-97"/>
    <path d="M 2.34375 14.796875 
L 16.109375 16.890625 
Q 17 12.890625 19.671875 10.8125 
Q 22.359375 8.734375 27.203125 8.734375 
Q 32.515625 8.734375 35.203125 10.6875 
Q 37.015625 12.0625 37.015625 14.359375 
Q 37.015625 15.921875 36.03125 16.9375 
Q 35.015625 17.921875 31.453125 18.75 
Q 14.84375 22.40625 10.40625 25.4375 
Q 4.25 29.640625 4.25 37.109375 
Q 4.25 43.84375 9.5625 48.4375 
Q 14.890625 53.03125 26.078125 53.03125 
Q 36.71875 53.03125 41.890625 49.5625 
Q 47.078125 46.09375 49.03125 39.3125 
L 36.078125 36.921875 
Q 35.25 39.9375 32.921875 41.546875 
Q 30.609375 43.171875 26.3125 43.171875 
Q 20.90625 43.171875 18.5625 41.65625 
Q 17 40.578125 17 38.875 
Q 17 37.40625 18.359375 36.375 
Q 20.21875 35.015625 31.171875 32.515625 
Q 42.140625 30.03125 46.484375 26.421875 
Q 50.78125 22.75 50.78125 16.21875 
Q 50.78125 9.078125 44.828125 3.953125 
Q 38.875 -1.171875 27.203125 -1.171875 
Q 16.609375 -1.171875 10.421875 3.125 
Q 4.25 7.421875 2.34375 14.796875 
z
" id="Arial-BoldMT-115"/>
    <path d="M 30.953125 51.859375 
L 30.953125 40.921875 
L 21.578125 40.921875 
L 21.578125 20.015625 
Q 21.578125 13.671875 21.84375 12.625 
Q 22.125 11.578125 23.078125 10.890625 
Q 24.03125 10.203125 25.390625 10.203125 
Q 27.296875 10.203125 30.90625 11.53125 
L 32.078125 0.875 
Q 27.296875 -1.171875 21.234375 -1.171875 
Q 17.53125 -1.171875 14.546875 0.0625 
Q 11.578125 1.3125 10.1875 3.296875 
Q 8.796875 5.28125 8.25 8.640625 
Q 7.8125 11.03125 7.8125 18.3125 
L 7.8125 40.921875 
L 1.515625 40.921875 
L 1.515625 51.859375 
L 7.8125 51.859375 
L 7.8125 62.15625 
L 21.578125 70.171875 
L 21.578125 51.859375 
z
" id="Arial-BoldMT-116"/>
    <path d="M 5.90625 -3.421875 
L 21.578125 -5.328125 
Q 21.96875 -8.0625 23.390625 -9.078125 
Q 25.34375 -10.546875 29.546875 -10.546875 
Q 34.90625 -10.546875 37.59375 -8.9375 
Q 39.40625 -7.859375 40.328125 -5.46875 
Q 40.96875 -3.765625 40.96875 0.828125 
L 40.96875 8.40625 
Q 34.8125 0 25.4375 0 
Q 14.984375 0 8.890625 8.84375 
Q 4.109375 15.828125 4.109375 26.21875 
Q 4.109375 39.265625 10.375 46.140625 
Q 16.65625 53.03125 25.984375 53.03125 
Q 35.59375 53.03125 41.84375 44.578125 
L 41.84375 51.859375 
L 54.6875 51.859375 
L 54.6875 5.328125 
Q 54.6875 -3.859375 53.171875 -8.390625 
Q 51.65625 -12.9375 48.921875 -15.515625 
Q 46.1875 -18.109375 41.625 -19.578125 
Q 37.0625 -21.046875 30.078125 -21.046875 
Q 16.890625 -21.046875 11.375 -16.53125 
Q 5.859375 -12.015625 5.859375 -5.078125 
Q 5.859375 -4.390625 5.90625 -3.421875 
z
M 18.171875 27 
Q 18.171875 18.75 21.359375 14.90625 
Q 24.5625 11.078125 29.25 11.078125 
Q 34.28125 11.078125 37.75 15.015625 
Q 41.21875 18.953125 41.21875 26.65625 
Q 41.21875 34.71875 37.890625 38.625 
Q 34.578125 42.53125 29.5 42.53125 
Q 24.5625 42.53125 21.359375 38.6875 
Q 18.171875 34.859375 18.171875 27 
z
" id="Arial-BoldMT-103"/>
    <path d="M 7.171875 71.578125 
L 21.625 71.578125 
L 21.625 32.8125 
Q 21.625 23.578125 22.171875 20.84375 
Q 23.09375 16.453125 26.578125 13.796875 
Q 30.078125 11.140625 36.140625 11.140625 
Q 42.28125 11.140625 45.40625 13.640625 
Q 48.53125 16.15625 49.171875 19.8125 
Q 49.8125 23.484375 49.8125 31.984375 
L 49.8125 71.578125 
L 64.265625 71.578125 
L 64.265625 33.984375 
Q 64.265625 21.09375 63.09375 15.765625 
Q 61.921875 10.453125 58.765625 6.78125 
Q 55.609375 3.125 50.328125 0.953125 
Q 45.0625 -1.21875 36.578125 -1.21875 
Q 26.3125 -1.21875 21.015625 1.140625 
Q 15.71875 3.515625 12.640625 7.296875 
Q 9.578125 11.078125 8.59375 15.234375 
Q 7.171875 21.390625 7.171875 33.40625 
z
" id="Arial-BoldMT-85"/>
    <path d="M 3.609375 23.296875 
L 17.671875 24.65625 
Q 18.953125 17.578125 22.828125 14.25 
Q 26.703125 10.9375 33.296875 10.9375 
Q 40.28125 10.9375 43.8125 13.890625 
Q 47.359375 16.84375 47.359375 20.796875 
Q 47.359375 23.34375 45.875 25.125 
Q 44.390625 26.90625 40.671875 28.21875 
Q 38.140625 29.109375 29.109375 31.34375 
Q 17.484375 34.234375 12.796875 38.421875 
Q 6.203125 44.34375 6.203125 52.828125 
Q 6.203125 58.296875 9.296875 63.0625 
Q 12.40625 67.828125 18.234375 70.3125 
Q 24.078125 72.796875 32.328125 72.796875 
Q 45.796875 72.796875 52.609375 66.890625 
Q 59.421875 60.984375 59.765625 51.125 
L 45.3125 50.484375 
Q 44.390625 56 41.328125 58.421875 
Q 38.28125 60.84375 32.171875 60.84375 
Q 25.875 60.84375 22.3125 58.25 
Q 20.015625 56.59375 20.015625 53.8125 
Q 20.015625 51.265625 22.171875 49.46875 
Q 24.90625 47.171875 35.453125 44.671875 
Q 46 42.1875 51.046875 39.515625 
Q 56.109375 36.859375 58.953125 32.25 
Q 61.8125 27.640625 61.8125 20.84375 
Q 61.8125 14.703125 58.390625 9.328125 
Q 54.984375 3.953125 48.734375 1.34375 
Q 42.484375 -1.265625 33.15625 -1.265625 
Q 19.578125 -1.265625 12.296875 5 
Q 5.03125 11.28125 3.609375 23.296875 
z
" id="Arial-BoldMT-83"/>
    <path d="M 21.4375 0 
L 0.53125 51.859375 
L 14.9375 51.859375 
L 24.703125 25.390625 
L 27.546875 16.546875 
Q 28.65625 19.921875 28.953125 21 
Q 29.640625 23.1875 30.421875 25.390625 
L 40.28125 51.859375 
L 54.390625 51.859375 
L 33.796875 0 
z
" id="Arial-BoldMT-118"/>
    <path d="M 20.84375 71.578125 
L 20.84375 45.265625 
Q 27.484375 53.03125 36.71875 53.03125 
Q 41.453125 53.03125 45.265625 51.265625 
Q 49.078125 49.515625 51 46.78125 
Q 52.9375 44.046875 53.640625 40.71875 
Q 54.34375 37.40625 54.34375 30.421875 
L 54.34375 0 
L 40.625 0 
L 40.625 27.390625 
Q 40.625 35.546875 39.84375 37.734375 
Q 39.0625 39.9375 37.078125 41.234375 
Q 35.109375 42.53125 32.125 42.53125 
Q 28.71875 42.53125 26.03125 40.859375 
Q 23.34375 39.203125 22.09375 35.859375 
Q 20.84375 32.515625 20.84375 25.984375 
L 20.84375 0 
L 7.125 0 
L 7.125 71.578125 
z
" id="Arial-BoldMT-104"/>
   </defs>
   <g style="fill:#ffffff;" transform="translate(337.28 20.2875)scale(0.16 -0.16)">
    <use xlink:href="#Arial-BoldMT-67"/>
    <use x="72.216797" xlink:href="#Arial-BoldMT-79"/>
    <use x="150" xlink:href="#Arial-BoldMT-86"/>
    <use x="216.699219" xlink:href="#Arial-BoldMT-73"/>
    <use x="244.482422" xlink:href="#Arial-BoldMT-68"/>
    <use x="316.699219" xlink:href="#Arial-BoldMT-45"/>
    <use x="350" xlink:href="#Arial-BoldMT-49"/>
    <use x="405.615234" xlink:href="#Arial-BoldMT-57"/>
    <use x="461.230469" xlink:href="#Arial-BoldMT-32"/>
    <use x="489.013672" xlink:href="#Arial-BoldMT-99"/>
    <use x="544.628906" xlink:href="#Arial-BoldMT-111"/>
    <use x="605.712891" xlink:href="#Arial-BoldMT-110"/>
    <use x="666.796875" xlink:href="#Arial-BoldMT-102"/>
    <use x="700.097656" xlink:href="#Arial-BoldMT-105"/>
    <use x="727.880859" xlink:href="#Arial-BoldMT-114"/>
    <use x="766.796875" xlink:href="#Arial-BoldMT-109"/>
    <use x="855.712891" xlink:href="#Arial-BoldMT-101"/>
    <use x="911.328125" xlink:href="#Arial-BoldMT-100"/>
    <use x="972.412109" xlink:href="#Arial-BoldMT-32"/>
    <use x="1000.195312" xlink:href="#Arial-BoldMT-99"/>
    <use x="1055.810547" xlink:href="#Arial-BoldMT-97"/>
    <use x="1111.425781" xlink:href="#Arial-BoldMT-115"/>
    <use x="1167.041016" xlink:href="#Arial-BoldMT-101"/>
    <use x="1222.65625" xlink:href="#Arial-BoldMT-115"/>
    <use x="1278.271484" xlink:href="#Arial-BoldMT-32"/>
    <use x="1306.054688" xlink:href="#Arial-BoldMT-97"/>
    <use x="1361.669922" xlink:href="#Arial-BoldMT-110"/>
    <use x="1422.753906" xlink:href="#Arial-BoldMT-100"/>
    <use x="1483.837891" xlink:href="#Arial-BoldMT-32"/>
    <use x="1511.621094" xlink:href="#Arial-BoldMT-102"/>
    <use x="1544.921875" xlink:href="#Arial-BoldMT-111"/>
    <use x="1606.005859" xlink:href="#Arial-BoldMT-114"/>
    <use x="1644.921875" xlink:href="#Arial-BoldMT-101"/>
    <use x="1700.537109" xlink:href="#Arial-BoldMT-99"/>
    <use x="1756.152344" xlink:href="#Arial-BoldMT-97"/>
    <use x="1811.767578" xlink:href="#Arial-BoldMT-115"/>
    <use x="1867.382812" xlink:href="#Arial-BoldMT-116"/>
    <use x="1900.683594" xlink:href="#Arial-BoldMT-105"/>
    <use x="1928.466797" xlink:href="#Arial-BoldMT-110"/>
    <use x="1989.550781" xlink:href="#Arial-BoldMT-103"/>
    <use x="2050.634766" xlink:href="#Arial-BoldMT-32"/>
    <use x="2078.417969" xlink:href="#Arial-BoldMT-105"/>
    <use x="2106.201172" xlink:href="#Arial-BoldMT-110"/>
    <use x="2167.285156" xlink:href="#Arial-BoldMT-32"/>
    <use x="2195.068359" xlink:href="#Arial-BoldMT-85"/>
    <use x="2267.285156" xlink:href="#Arial-BoldMT-83"/>
    <use x="2333.984375" xlink:href="#Arial-BoldMT-32"/>
    <use x="2361.767578" xlink:href="#Arial-BoldMT-111"/>
    <use x="2422.851562" xlink:href="#Arial-BoldMT-118"/>
    <use x="2478.466797" xlink:href="#Arial-BoldMT-101"/>
    <use x="2534.082031" xlink:href="#Arial-BoldMT-114"/>
    <use x="2572.998047" xlink:href="#Arial-BoldMT-32"/>
    <use x="2600.78125" xlink:href="#Arial-BoldMT-116"/>
    <use x="2634.082031" xlink:href="#Arial-BoldMT-104"/>
    <use x="2695.166016" xlink:href="#Arial-BoldMT-101"/>
    <use x="2750.78125" xlink:href="#Arial-BoldMT-32"/>
    <use x="2778.564453" xlink:href="#Arial-BoldMT-116"/>
    <use x="2811.865234" xlink:href="#Arial-BoldMT-105"/>
    <use x="2839.648438" xlink:href="#Arial-BoldMT-109"/>
    <use x="2928.564453" xlink:href="#Arial-BoldMT-101"/>
   </g>
  </g>
 </g>
 <defs>
  <clipPath id="pc5f004d6b9">
   <rect height="326.16" width="892.8" x="144" y="51.84"/>
  </clipPath>
 </defs>
</svg>
